<?xml version="1.0" encoding="UTF-8"?>
<svg version="1.1" xmlns="http://www.w3.org/2000/svg" width="410" height="410">
<path d="M0,0 L6,0 L6,2 L8,2 L10,6 L9,14 L21,26 L29,20 L36,17 L41,18 L45,22 L46,25 L46,32 L41,43 L52,54 L59,62 L68,72 L68,74 L70,74 L76,83 L77,88 L73,95 L75,100 L77,104 L79,104 L84,109 L84,111 L87,112 L87,117 L83,120 L78,119 L71,111 L64,104 L54,107 L47,104 L38,95 L36,95 L30,102 L28,102 L26,106 L16,119 L10,131 L6,145 L5,154 L5,165 L8,180 L13,192 L19,199 L19,201 L23,203 L28,207 L30,207 L34,211 L43,215 L51,215 L53,217 L53,218 L62,220 L63,222 L61,225 L56,225 L55,227 L50,226 L34,222 L24,217 L28,232 L33,244 L37,254 L36,258 L31,259 L26,254 L24,251 L23,249 L21,248 L22,246 L17,236 L11,212 L9,205 L4,199 L1,196 L0,192 L-4,182 L-8,165 L-8,148 L-6,148 L-5,138 L0,125 L7,112 L17,99 L25,91 L27,90 L29,85 L13,69 L4,72 L-5,72 L-11,67 L-11,59 L-7,52 L-10,47 L-7,47 L-9,42 L-14,39 L-15,35 L-22,34 L-27,29 L-28,23 L-23,16 L-21,16 L-21,14 L-5,2 Z M1,10 Z M-2,11 L-6,15 L-3,16 L1,12 Z M-8,15 L-13,19 L-16,21 L-16,23 L-18,23 L-18,25 L-13,24 L-6,18 Z M-5,16 Z M1,22 L-7,29 L-5,34 L-2,34 L0,38 L6,43 L13,38 L13,36 L16,35 L13,30 L4,22 Z M34,27 L27,34 L24,39 L25,41 L20,42 L11,49 L1,57 L-1,59 L0,63 L10,59 L21,50 L33,38 L37,30 L37,27 Z M-4,48 Z M-5,49 Z M-6,50 L-5,52 Z M33,50 L28,54 L28,57 L24,58 L22,60 L23,65 L30,73 L36,80 L38,80 L38,82 L43,80 L43,78 L48,76 L52,73 L49,73 L50,70 L50,72 L53,72 L52,68 L45,61 L38,53 L35,50 Z M54,72 Z M55,73 Z M56,75 L54,80 L45,88 L50,94 L53,94 L53,96 L60,95 L66,90 L67,86 L64,83 L63,85 L61,85 L62,80 L58,75 Z M62,81 Z M23,216 Z M47,216 Z M23,248 Z " fill="#E9EAEA" transform="translate(88,69)"/>
<path d="M0,0 L1,2 L12,2 L18,4 L18,9 L12,9 L11,11 L1,12 L-11,16 L-22,22 L-28,27 L-30,27 L-32,31 L-39,39 L-47,53 L-51,65 L-53,83 L-50,102 L-46,111 L-40,121 L-35,126 L-31,129 L-29,130 L-25,134 L-9,142 L-1,143 L1,149 L0,150 L-13,150 L-25,146 L-32,143 L-28,164 L-24,175 L-23,181 L-25,183 L-32,182 L-37,170 L-40,160 L-40,156 L-42,155 L-44,139 L-46,132 L-50,132 L-50,127 L-57,116 L-59,114 L-63,112 L-62,103 L-64,95 L-64,89 L-67,88 L-66,87 L-66,81 L-67,77 L-66,76 L-66,68 L-64,67 L-59,49 L-60,46 L-57,43 L-53,39 L-46,29 L-39,21 L-29,13 L-13,5 L-7,4 L-6,2 L-1,2 Z M-57,45 Z M-58,46 L-57,48 Z M-61,107 L-60,109 Z M-60,109 L-59,111 Z " fill="#EAEBEB" transform="translate(236,144)"/>
<path d="M0,0 L4,2 L8,13 L8,15 L10,16 L14,33 L18,55 L21,87 L21,100 L20,102 L17,126 L12,147 L8,156 L3,157 L0,155 L6,122 L8,103 L8,67 L6,51 L5,48 L4,37 L2,30 L0,18 L-2,12 L-4,10 L-2,1 Z M-3,7 Z M-3,9 Z " fill="#EDEEEE" transform="translate(305,169)"/>
<path d="M0,0 L3,1 L2,4 L0,12 L2,13 L0,13 L-1,23 L-7,42 L-14,57 L-23,72 L-33,83 L-34,86 L-38,88 L-43,89 L-45,90 L-46,82 L-43,81 L-43,79 L-38,74 L-36,74 L-34,70 L-27,60 L-23,51 L-23,49 L-21,49 L-19,44 L-12,26 L-6,2 L-2,1 L0,2 Z M-22,50 Z " fill="#D2D4D4" transform="translate(334,77)"/>
<path d="M0,0 L6,0 L7,8 L4,27 L3,34 L1,34 L0,39 L-5,49 L-9,51 L-9,53 L-12,52 L-14,49 L-13,42 L-8,32 L-3,12 L-2,2 Z M-11,51 Z " fill="#F1F2F2" transform="translate(166,83)"/>
<path d="M0,0 L2,3 L8,27 L11,43 L13,60 L13,104 L11,120 L9,118 L11,100 L11,64 L9,48 L8,45 L7,34 L5,27 L3,15 L1,9 L-1,7 Z M0,4 Z M0,6 Z " fill="#969898" transform="translate(302,172)"/>
<path d="M0,0 L10,0 L11,4 L7,8 L-4,10 L-7,8 L-6,3 L-4,1 Z " fill="#DADBDB" transform="translate(152,192)"/>
<path d="M0,0 L1,0 L0,9 L0,34 L4,49 L11,63 L10,65 L4,55 L2,55 L0,53 L-1,49 L0,44 L-2,36 L-2,30 L-5,29 L-4,28 L-4,22 L-5,18 L-4,17 L-4,9 L-2,8 Z M1,48 L2,50 Z M2,50 L3,52 Z " fill="#B7B8B9" transform="translate(174,203)"/>
<path d="M0,0 L6,0 L7,8 L4,27 L3,34 L1,34 L0,39 L-1,36 L3,21 L4,9 L4,2 L0,2 L-1,15 L-6,33 L-9,39 L-10,35 L-7,29 L-3,12 L-2,2 Z " fill="#9C9E9E" transform="translate(166,83)"/>
<path d="M0,0 L9,0 L10,8 L8,13 L3,16 L0,13 L-1,9 L0,3 L2,2 Z " fill="#B8B9BA" transform="translate(173,140)"/>
<path d="M0,0 L1,2 L12,2 L18,4 L18,9 L12,9 L11,11 L1,12 L-9,14 L-7,12 L9,8 L16,7 L17,5 L-4,5 L-17,9 L-22,10 L-18,7 L-10,4 L-7,4 L-6,2 L-1,2 Z " fill="#9C9E9E" transform="translate(236,144)"/>
<path d="M0,0 L2,4 L6,26 L9,58 L9,71 L8,73 L7,83 L6,83 L6,46 L3,20 L0,5 Z " fill="#939595" transform="translate(317,198)"/>
<path d="M0,0 L2,1 L1,3 L4,3 L5,0 L13,8 L19,16 L18,21 L17,17 L16,15 L14,17 L12,16 L11,9 L7,7 L6,11 L3,13 L4,7 L-1,7 L0,4 L-1,1 Z M5,3 Z M6,4 Z M13,12 Z " fill="#C0C1C1" transform="translate(137,138)"/>
<path d="M0,0 L3,1 L2,6 L0,5 L-2,4 L-5,6 L-4,10 L-12,17 L-19,18 L-18,13 L-16,13 L-16,15 L-18,15 L-18,17 L-10,13 L-7,9 L-9,9 L-11,11 L-15,12 L-10,7 Z M1,2 Z " fill="#A9AAAA" transform="translate(88,77)"/>
<path d="M0,0 L7,1 L7,3 L16,5 L17,7 L15,10 L10,10 L9,12 L4,11 L-6,9 L-6,8 L14,8 L15,6 L6,5 L-3,2 Z M1,1 Z " fill="#A6A7A7" transform="translate(134,284)"/>
<path d="M0,0 L7,6 L9,12 L12,30 L14,38 L13,42 L11,36 L11,32 L9,31 L7,15 L5,8 L1,8 L1,3 Z " fill="#999B9B" transform="translate(185,268)"/>
<path d="M0,0 L2,3 L6,18 L13,32 L12,34 L6,24 L4,24 L2,22 L1,18 L2,13 L0,5 Z M3,17 L4,19 Z M4,19 L5,21 Z " fill="#AAACAC" transform="translate(172,234)"/>
<path d="M0,0 L1,4 L-2,19 L-2,33 L-1,47 L-2,47 L-5,33 L-5,16 L-3,16 L-2,6 Z " fill="#959797" transform="translate(85,201)"/>
<path d="M0,0 L4,0 L4,8 L1,12 L-2,11 L-2,3 Z " fill="#F8F9F9" transform="translate(177,142)"/>
<path d="M0,0 L2,1 L-5,9 L-13,17 L-16,18 L-14,14 L-7,6 Z " fill="#C8CACA" transform="translate(204,159)"/>
<path d="M0,0 L8,6 L14,14 L10,17 L8,17 L5,12 L8,12 L6,7 L1,4 Z M11,13 Z M10,14 Z " fill="#B2B3B3" transform="translate(73,104)"/>
<path d="M0,0 L2,1 L-1,4 L-6,8 L-5,11 L4,8 L1,11 L-4,13 L-9,12 L-8,7 Z " fill="#B1B3B3" transform="translate(94,120)"/>
<path d="M0,0 L3,4 L9,14 L12,17 L16,19 L11,20 L6,15 L4,12 L3,10 L1,9 L2,7 L0,3 Z M3,9 Z " fill="#828383" transform="translate(108,308)"/>
<path d="M0,0 L2,0 L2,5 L8,3 L12,1 L11,5 L7,7 L2,8 L0,9 L-1,1 Z " fill="#B2B3B4" transform="translate(289,158)"/>
<path d="M0,0 L2,1 L1,3 L5,2 L8,6 L6,11 L3,13 L4,7 L-1,7 L0,4 L-1,1 Z " fill="#CCCCCC" transform="translate(137,138)"/>
<path d="M0,0 L7,6 L9,12 L9,15 L7,15 L5,8 L1,8 L1,3 Z " fill="#B0B2B2" transform="translate(185,268)"/>
<path d="M0,0 L1,0 L1,9 L-3,19 L-4,16 Z " fill="#7C7E7E" transform="translate(326,87)"/>
<path d="M0,0 L0,3 L-1,7 L-6,9 L-9,12 L-11,11 Z " fill="#BCBDBD" transform="translate(114,103)"/>
<path d="M0,0 L0,3 L2,8 L4,12 L-1,9 L-3,4 Z " fill="#B9BBBB" transform="translate(161,161)"/>
<path d="M0,0 L2,1 L1,4 L-3,6 L-7,5 L-2,2 Z " fill="#9A9C9C" transform="translate(299,159)"/>
<path d="M0,0 L3,1 L1,2 L0,5 L-2,4 L-2,2 L0,2 Z " fill="#D4D4D4" transform="translate(135,135)"/>
<path d="M0,0 L2,3 L2,7 L0,6 Z " fill="#ABAEAE" transform="translate(81,245)"/>
<path d="M0,0 L3,0 L1,4 Z " fill="#CDCDCC" transform="translate(120,100)"/>
<path d="M0,0 L3,1 L2,3 L0,2 Z " fill="#AFB0B0" transform="translate(133,297)"/>
<path d="M0,0 L5,0 L3,2 Z " fill="#A2A2A2" transform="translate(228,295)"/>
<path d="M0,0 L3,1 L-1,3 Z " fill="#CFD0D0" transform="translate(173,188)"/>
<path d="M0,0 L4,1 L2,2 Z " fill="#B2B3B2" transform="translate(135,295)"/>
<path d="M0,0 L4,0 L3,2 Z " fill="#C4C6C6" transform="translate(205,289)"/>
<path d="M0,0 L1,0 L1,5 L0,5 Z " fill="#AEB1B1" transform="translate(81,207)"/>
<path d="M0,0 L3,1 L0,2 Z " fill="#CCCBCC" transform="translate(137,178)"/>
<path d="M0,0 L1,2 L-2,1 Z " fill="#9B9C9C" transform="translate(236,294)"/>
<path d="M0,0 L0,3 Z " fill="#C5C6C4" transform="translate(105,263)"/>
<path d="M0,0 L2,1 L0,3 Z " fill="#C3C5C4" transform="translate(185,238)"/>
<path d="M0,0 L4,1 Z " fill="#C3C5C5" transform="translate(151,202)"/>
<path d="M0,0 L1,4 Z " fill="#D2D2D3" transform="translate(182,179)"/>
<path d="M0,0 L2,2 L-1,1 Z " fill="#CBCBCC" transform="translate(134,176)"/>
<path d="M0,0 L2,2 L-1,1 Z " fill="#CCCCCC" transform="translate(136,174)"/>
<path d="M0,0 L2,2 L-1,1 Z " fill="#BABDBD" transform="translate(309,151)"/>
<path d="M0,0 L2,1 L-1,1 Z " fill="#D3D5D4" transform="translate(97,125)"/>
<path d="M0,0 L2,1 L-1,1 Z " fill="#B9BABB" transform="translate(79,121)"/>
<path d="M0,0 L2,2 L0,3 Z " fill="#D0D1D1" transform="translate(117,103)"/>
<path d="M0,0 L2,2 L0,2 Z " fill="#A9AAAB" transform="translate(231,285)"/>
<path d="M0,0 L1,2 L-1,1 Z " fill="#C1C4C4" transform="translate(190,278)"/>
<path d="M0,0 Z " fill="#C6C6C6" transform="translate(112,268)"/>
<path d="M0,0 L2,0 L1,2 Z " fill="#C3C3C3" transform="translate(181,267)"/>
<path d="M0,0 Z " fill="#B7B9B9" transform="translate(312,265)"/>
<path d="M0,0 Z " fill="#C3C4C2" transform="translate(177,258)"/>
<path d="M0,0 Z " fill="#B9BCBC" transform="translate(312,241)"/>
<path d="M0,0 L1,2 L-1,1 Z " fill="#ABADAD" transform="translate(80,238)"/>
<path d="M0,0 Z " fill="#C6C6C7" transform="translate(184,233)"/>
<path d="M0,0 L1,2 L-1,1 Z " fill="#ADAEAF" transform="translate(80,214)"/>
<path d="M0,0 L2,0 L1,2 Z " fill="#AFB0B1" transform="translate(81,205)"/>
<path d="M0,0 L3,1 Z " fill="#C7C8C9" transform="translate(149,191)"/>
<path d="M0,0 Z " fill="#D1D1D1" transform="translate(172,172)"/>
<path d="M0,0 L2,1 L0,2 Z " fill="#CDCECE" transform="translate(194,165)"/>
<path d="M0,0 L2,2 L0,2 Z " fill="#CCCDCE" transform="translate(103,141)"/>
<path d="M0,0 L1,2 L-1,1 Z " fill="#B3B6B6" transform="translate(303,138)"/>
<path d="M0,0 L2,0 L1,2 Z " fill="#D2D2D2" transform="translate(145,128)"/>
<path d="M0,0 L2,1 L0,2 Z " fill="#D3D3D4" transform="translate(105,119)"/>
<path d="M0,0 L3,1 Z " fill="#B8B9B9" transform="translate(77,119)"/>
<path d="M0,0 L1,2 L-1,1 Z " fill="#D0D2D3" transform="translate(108,116)"/>
<path d="M0,0 L2,2 L0,2 Z " fill="#CFD0CF" transform="translate(91,107)"/>
<path d="M0,0 L2,0 L1,2 Z " fill="#AFB0B1" transform="translate(159,100)"/>
<path d="M0,0 L2,1 L0,2 Z " fill="#343234" transform="translate(347,71)"/>
<path d="M0,0 L2,1 Z " fill="#7A7C7B" transform="translate(209,328)"/>
<path d="M0,0 L2,1 Z " fill="#7D7C7C" transform="translate(206,328)"/>
<path d="M0,0 L2,1 Z " fill="#7B7C7C" transform="translate(122,328)"/>
<path d="M0,0 L2,1 Z " fill="#8D8D8A" transform="translate(304,316)"/>
<path d="M0,0 Z " fill="#9A9A99" transform="translate(306,309)"/>
<path d="M0,0 L2,1 Z " fill="#A6A8A7" transform="translate(210,309)"/>
<path d="M0,0 Z " fill="#9FA0A1" transform="translate(105,306)"/>
<path d="M0,0 L2,1 Z " fill="#A9AAAC" transform="translate(137,299)"/>
<path d="M0,0 Z " fill="#B5B6B5" transform="translate(193,295)"/>
<path d="M0,0 Z " fill="#AEB0B1" transform="translate(101,295)"/>
<path d="M0,0 L2,1 Z " fill="#B1B2B1" transform="translate(220,294)"/>
<path d="M0,0 L2,1 Z " fill="#B2B3B3" transform="translate(309,291)"/>
<path d="M0,0 Z " fill="#C6C9CA" transform="translate(114,290)"/>
<path d="M0,0 Z " fill="#B8B8B7" transform="translate(311,279)"/>
<path d="M0,0 Z " fill="#B6B8B8" transform="translate(312,262)"/>
<path d="M0,0 Z " fill="#BFC1C0" transform="translate(108,260)"/>
<path d="M0,0 Z " fill="#BBBCBC" transform="translate(312,238)"/>
<path d="M0,0 Z " fill="#AFAFB0" transform="translate(79,228)"/>
<path d="M0,0 Z " fill="#A9ACAD" transform="translate(79,225)"/>
<path d="M0,0 L2,1 Z " fill="#ABACAD" transform="translate(79,212)"/>
<path d="M0,0 Z " fill="#C7C9C9" transform="translate(185,210)"/>
<path d="M0,0 Z " fill="#B7B8B8" transform="translate(87,192)"/>
<path d="M0,0 L2,1 Z " fill="#C5C6C6" transform="translate(193,189)"/>
<path d="M0,0 L2,1 Z " fill="#CBCECE" transform="translate(154,188)"/>
<path d="M0,0 L2,1 Z " fill="#D0D0D1" transform="translate(177,184)"/>
<path d="M0,0 Z " fill="#8E908E" transform="translate(314,181)"/>
<path d="M0,0 Z " fill="#D0D1D1" transform="translate(177,180)"/>
<path d="M0,0 L2,1 Z " fill="#CECFCE" transform="translate(113,179)"/>
<path d="M0,0 L2,1 Z " fill="#D0CFD0" transform="translate(144,178)"/>
<path d="M0,0 L2,1 Z " fill="#CCCDCE" transform="translate(141,177)"/>
<path d="M0,0 Z " fill="#BEBFBF" transform="translate(98,174)"/>
<path d="M0,0 Z " fill="#C0C0C1" transform="translate(99,172)"/>
<path d="M0,0 L2,1 Z " fill="#7D7C7C" transform="translate(306,168)"/>
<path d="M0,0 L2,1 Z " fill="#D3D3D3" transform="translate(127,167)"/>
<path d="M0,0 L2,1 Z " fill="#D2D3D3" transform="translate(121,167)"/>
<path d="M0,0 Z " fill="#7A7C7B" transform="translate(301,164)"/>
<path d="M0,0 Z " fill="#D3D2D3" transform="translate(125,164)"/>
<path d="M0,0 L2,1 Z " fill="#D9DBDA" transform="translate(137,160)"/>
<path d="M0,0 Z " fill="#CCCCCD" transform="translate(197,157)"/>
<path d="M0,0 Z " fill="#9C9D9F" transform="translate(252,154)"/>
<path d="M0,0 L2,1 Z " fill="#D5D6D5" transform="translate(137,155)"/>
<path d="M0,0 Z " fill="#CFCFD1" transform="translate(114,152)"/>
<path d="M0,0 L2,1 Z " fill="#C8CAC9" transform="translate(216,150)"/>
<path d="M0,0 Z " fill="#D3D5D6" transform="translate(150,133)"/>
<path d="M0,0 L2,1 Z " fill="#D1D2D3" transform="translate(133,133)"/>
<path d="M0,0 Z " fill="#CCCECD" transform="translate(91,128)"/>
<path d="M0,0 L2,1 Z " fill="#C8C9C9" transform="translate(88,129)"/>
<path d="M0,0 Z " fill="#CECFD0" transform="translate(151,126)"/>
<path d="M0,0 Z " fill="#D2D3D3" transform="translate(102,121)"/>
<path d="M0,0 L2,1 Z " fill="#D0D2D2" transform="translate(104,117)"/>
<path d="M0,0 L2,1 Z " fill="#8F8F90" transform="translate(319,102)"/>
<path d="M0,0 L2,1 Z " fill="#CCCDCD" transform="translate(89,99)"/>
<path d="M0,0 L2,1 Z " fill="#3D3E3D" transform="translate(347,94)"/>
<path d="M0,0 Z " fill="#383838" transform="translate(349,79)"/>
<path d="M0,0 Z " fill="#353534" transform="translate(344,78)"/>
<path d="M0,0 L2,1 Z " fill="#2F2E2F" transform="translate(345,64)"/>
<path d="M0,0 Z " fill="#010102" transform="translate(384,408)"/>
<path d="M0,0 Z " fill="#0A090A" transform="translate(95,406)"/>
<path d="M0,0 Z " fill="#000302" transform="translate(386,402)"/>
<path d="M0,0 Z " fill="#121110" transform="translate(111,400)"/>
<path d="M0,0 Z " fill="#020403" transform="translate(386,394)"/>
<path d="M0,0 Z " fill="#000100" transform="translate(407,392)"/>
<path d="M0,0 Z " fill="#050505" transform="translate(381,392)"/>
<path d="M0,0 Z " fill="#040404" transform="translate(22,392)"/>
<path d="M0,0 Z " fill="#040705" transform="translate(386,386)"/>
<path d="M0,0 Z " fill="#0A0A0B" transform="translate(360,386)"/>
<path d="M0,0 Z " fill="#080707" transform="translate(384,384)"/>
<path d="M0,0 Z " fill="#0C0B0A" transform="translate(47,384)"/>
<path d="M0,0 Z " fill="#151513" transform="translate(76,382)"/>
<path d="M0,0 Z " fill="#070907" transform="translate(386,378)"/>
<path d="M0,0 Z " fill="#090C0C" transform="translate(386,370)"/>
<path d="M0,0 Z " fill="#0D0D0C" transform="translate(386,366)"/>
<path d="M0,0 Z " fill="#292929" transform="translate(95,366)"/>
<path d="M0,0 Z " fill="#191816" transform="translate(356,365)"/>
<path d="M0,0 Z " fill="#212022" transform="translate(73,364)"/>
<path d="M0,0 Z " fill="#0E100F" transform="translate(386,362)"/>
<path d="M0,0 Z " fill="#1B1B1C" transform="translate(356,361)"/>
<path d="M0,0 Z " fill="#121212" transform="translate(384,360)"/>
<path d="M0,0 Z " fill="#1F201E" transform="translate(351,359)"/>
<path d="M0,0 Z " fill="#3A3839" transform="translate(157,359)"/>
<path d="M0,0 Z " fill="#1F1D1C" transform="translate(356,358)"/>
<path d="M0,0 Z " fill="#121413" transform="translate(386,354)"/>
<path d="M0,0 Z " fill="#454645" transform="translate(290,354)"/>
<path d="M0,0 Z " fill="#252422" transform="translate(356,353)"/>
<path d="M0,0 Z " fill="#3C3939" transform="translate(95,352)"/>
<path d="M0,0 Z " fill="#191917" transform="translate(23,352)"/>
<path d="M0,0 Z " fill="#3F3E3E" transform="translate(95,350)"/>
<path d="M0,0 Z " fill="#2E2E2D" transform="translate(356,345)"/>
<path d="M0,0 Z " fill="#111010" transform="translate(407,344)"/>
<path d="M0,0 Z " fill="#5D5A5A" transform="translate(285,344)"/>
<path d="M0,0 Z " fill="#1F201D" transform="translate(23,344)"/>
<path d="M0,0 Z " fill="#1E1F1F" transform="translate(386,338)"/>
<path d="M0,0 Z " fill="#373636" transform="translate(356,337)"/>
<path d="M0,0 Z " fill="#3C3E3D" transform="translate(351,335)"/>
<path d="M0,0 Z " fill="#1B1B1A" transform="translate(31,335)"/>
<path d="M0,0 Z " fill="#7B7A78" transform="translate(165,334)"/>
<path d="M0,0 Z " fill="#3B3C39" transform="translate(356,333)"/>
<path d="M0,0 Z " fill="#232624" transform="translate(386,330)"/>
<path d="M0,0 Z " fill="#414140" transform="translate(356,329)"/>
<path d="M0,0 Z " fill="#747675" transform="translate(212,329)"/>
<path d="M0,0 Z " fill="#757676" transform="translate(118,329)"/>
<path d="M0,0 Z " fill="#484847" transform="translate(351,327)"/>
<path d="M0,0 Z " fill="#656567" transform="translate(327,327)"/>
<path d="M0,0 Z " fill="#777675" transform="translate(313,327)"/>
<path d="M0,0 Z " fill="#777878" transform="translate(311,327)"/>
<path d="M0,0 Z " fill="#757672" transform="translate(307,327)"/>
<path d="M0,0 Z " fill="#7F807E" transform="translate(205,327)"/>
<path d="M0,0 Z " fill="#7E7F7F" transform="translate(212,326)"/>
<path d="M0,0 Z " fill="#454545" transform="translate(356,324)"/>
<path d="M0,0 Z " fill="#838383" transform="translate(112,323)"/>
<path d="M0,0 Z " fill="#4B4A4A" transform="translate(356,321)"/>
<path d="M0,0 Z " fill="#878687" transform="translate(112,321)"/>
<path d="M0,0 Z " fill="#88898C" transform="translate(316,320)"/>
<path d="M0,0 Z " fill="#858585" transform="translate(301,319)"/>
<path d="M0,0 Z " fill="#4E4D4C" transform="translate(356,318)"/>
<path d="M0,0 Z " fill="#919394" transform="translate(212,318)"/>
<path d="M0,0 Z " fill="#888787" transform="translate(301,317)"/>
<path d="M0,0 Z " fill="#878886" transform="translate(302,316)"/>
<path d="M0,0 Z " fill="#9E9E9E" transform="translate(211,315)"/>
<path d="M0,0 Z " fill="#545453" transform="translate(356,313)"/>
<path d="M0,0 Z " fill="#5E5D5C" transform="translate(351,311)"/>
<path d="M0,0 Z " fill="#939693" transform="translate(319,311)"/>
<path d="M0,0 Z " fill="#A6A8A7" transform="translate(195,307)"/>
<path d="M0,0 Z " fill="#A5A4A2" transform="translate(307,306)"/>
<path d="M0,0 Z " fill="#5C5B5B" transform="translate(356,305)"/>
<path d="M0,0 Z " fill="#666665" transform="translate(351,303)"/>
<path d="M0,0 Z " fill="#969696" transform="translate(327,303)"/>
<path d="M0,0 Z " fill="#B0AFB1" transform="translate(194,301)"/>
<path d="M0,0 Z " fill="#A2A2A2" transform="translate(101,301)"/>
<path d="M0,0 Z " fill="#5F605E" transform="translate(356,300)"/>
<path d="M0,0 Z " fill="#A5A5A5" transform="translate(102,300)"/>
<path d="M0,0 Z " fill="#939595" transform="translate(236,299)"/>
<path d="M0,0 Z " fill="#A9A9AA" transform="translate(140,299)"/>
<path d="M0,0 Z " fill="#AAAEAE" transform="translate(102,298)"/>
<path d="M0,0 Z " fill="#616361" transform="translate(356,297)"/>
<path d="M0,0 Z " fill="#9D9E9F" transform="translate(230,297)"/>
<path d="M0,0 Z " fill="#A9ABAC" transform="translate(147,296)"/>
<path d="M0,0 Z " fill="#9FA0A0" transform="translate(327,295)"/>
<path d="M0,0 Z " fill="#ADADAB" transform="translate(307,295)"/>
<path d="M0,0 Z " fill="#ACACAE" transform="translate(223,295)"/>
<path d="M0,0 Z " fill="#B4B6B3" transform="translate(133,295)"/>
<path d="M0,0 Z " fill="#B7B7B5" transform="translate(131,295)"/>
<path d="M0,0 Z " fill="#C1C1C2" transform="translate(115,295)"/>
<path d="M0,0 Z " fill="#BBBABB" transform="translate(125,293)"/>
<path d="M0,0 Z " fill="#BFC1C2" transform="translate(121,291)"/>
<path d="M0,0 Z " fill="#C6C3C3" transform="translate(210,290)"/>
<path d="M0,0 Z " fill="#C8C8C9" transform="translate(116,290)"/>
<path d="M0,0 Z " fill="#696668" transform="translate(356,289)"/>
<path d="M0,0 Z " fill="#C1C4C5" transform="translate(117,289)"/>
<path d="M0,0 Z " fill="#CBCDCC" transform="translate(113,289)"/>
<path d="M0,0 Z " fill="#B7B8B7" transform="translate(310,288)"/>
<path d="M0,0 Z " fill="#C7C9C9" transform="translate(114,288)"/>
<path d="M0,0 Z " fill="#717272" transform="translate(351,287)"/>
<path d="M0,0 Z " fill="#A7A7A8" transform="translate(327,287)"/>
<path d="M0,0 Z " fill="#B4B4B6" transform="translate(146,287)"/>
<path d="M0,0 Z " fill="#A0A3A3" transform="translate(236,286)"/>
<path d="M0,0 Z " fill="#69696A" transform="translate(356,284)"/>
<path d="M0,0 Z " fill="#A9ACAB" transform="translate(230,284)"/>
<path d="M0,0 Z " fill="#ACAEAF" transform="translate(226,284)"/>
<path d="M0,0 Z " fill="#B3B4B4" transform="translate(310,283)"/>
<path d="M0,0 Z " fill="#B5B8B8" transform="translate(311,282)"/>
<path d="M0,0 Z " fill="#6E6D6E" transform="translate(356,281)"/>
<path d="M0,0 Z " fill="#8B8B8A" transform="translate(340,281)"/>
<path d="M0,0 Z " fill="#B1AFB2" transform="translate(325,281)"/>
<path d="M0,0 Z " fill="#706F6F" transform="translate(355,279)"/>
<path d="M0,0 Z " fill="#ABACAD" transform="translate(327,279)"/>
<path d="M0,0 Z " fill="#B8BBBA" transform="translate(215,279)"/>
<path d="M0,0 Z " fill="#BEBDBD" transform="translate(211,275)"/>
<path d="M0,0 Z " fill="#C3C2C2" transform="translate(115,274)"/>
<path d="M0,0 Z " fill="#BBBCBA" transform="translate(96,274)"/>
<path d="M0,0 Z " fill="#717071" transform="translate(356,273)"/>
<path d="M0,0 Z " fill="#BBBCBB" transform="translate(212,273)"/>
<path d="M0,0 Z " fill="#C3C5C4" transform="translate(113,272)"/>
<path d="M0,0 Z " fill="#6C6C6C" transform="translate(359,271)"/>
<path d="M0,0 Z " fill="#ADAFAE" transform="translate(327,271)"/>
<path d="M0,0 Z " fill="#B6B5B4" transform="translate(325,271)"/>
<path d="M0,0 Z " fill="#C3C2C2" transform="translate(205,271)"/>
<path d="M0,0 Z " fill="#C4C5C4" transform="translate(185,271)"/>
<path d="M0,0 Z " fill="#C3C5C4" transform="translate(181,271)"/>
<path d="M0,0 Z " fill="#C9C8C9" transform="translate(111,271)"/>
<path d="M0,0 Z " fill="#BCBDBD" transform="translate(312,270)"/>
<path d="M0,0 Z " fill="#C5C5C4" transform="translate(184,270)"/>
<path d="M0,0 Z " fill="#C3C3C3" transform="translate(180,270)"/>
<path d="M0,0 Z " fill="#C2C6C4" transform="translate(202,269)"/>
<path d="M0,0 Z " fill="#707072" transform="translate(356,268)"/>
<path d="M0,0 Z " fill="#C1C1C1" transform="translate(116,268)"/>
<path d="M0,0 Z " fill="#AFAFB0" transform="translate(326,267)"/>
<path d="M0,0 Z " fill="#C5C5C5" transform="translate(107,267)"/>
<path d="M0,0 Z " fill="#B4B6B5" transform="translate(90,266)"/>
<path d="M0,0 Z " fill="#737373" transform="translate(356,265)"/>
<path d="M0,0 Z " fill="#C2C4C5" transform="translate(198,265)"/>
<path d="M0,0 Z " fill="#B4B5B7" transform="translate(89,265)"/>
<path d="M0,0 Z " fill="#ADADB0" transform="translate(327,263)"/>
<path d="M0,0 Z " fill="#B0B3B1" transform="translate(87,262)"/>
<path d="M0,0 Z " fill="#B9B9B9" transform="translate(311,261)"/>
<path d="M0,0 Z " fill="#C4C3C4" transform="translate(178,261)"/>
<path d="M0,0 Z " fill="#AEADAE" transform="translate(85,261)"/>
<path d="M0,0 Z " fill="#C7C9C7" transform="translate(194,260)"/>
<path d="M0,0 Z " fill="#B0B0B1" transform="translate(86,260)"/>
<path d="M0,0 Z " fill="#B7B8B9" transform="translate(312,259)"/>
<path d="M0,0 Z " fill="#AFB1B0" transform="translate(85,259)"/>
<path d="M0,0 Z " fill="#C1C3C1" transform="translate(175,258)"/>
<path d="M0,0 Z " fill="#757575" transform="translate(356,257)"/>
<path d="M0,0 Z " fill="#9FA1A0" transform="translate(335,255)"/>
<path d="M0,0 Z " fill="#ADAFAF" transform="translate(327,255)"/>
<path d="M0,0 Z " fill="#BABAB9" transform="translate(312,254)"/>
<path d="M0,0 Z " fill="#C4C5C3" transform="translate(98,252)"/>
<path d="M0,0 Z " fill="#B2B3B1" transform="translate(326,251)"/>
<path d="M0,0 Z " fill="#B8B9BC" transform="translate(312,251)"/>
<path d="M0,0 Z " fill="#767777" transform="translate(356,249)"/>
<path d="M0,0 Z " fill="#7D807E" transform="translate(351,247)"/>
<path d="M0,0 Z " fill="#AFB0B0" transform="translate(327,247)"/>
<path d="M0,0 Z " fill="#C4C3C3" transform="translate(188,247)"/>
<path d="M0,0 Z " fill="#A8A8A9" transform="translate(79,247)"/>
<path d="M0,0 Z " fill="#777675" transform="translate(356,246)"/>
<path d="M0,0 Z " fill="#BBBBBC" transform="translate(312,246)"/>
<path d="M0,0 Z " fill="#C3C5C3" transform="translate(186,243)"/>
<path d="M0,0 Z " fill="#AEB2B3" transform="translate(81,243)"/>
<path d="M0,0 Z " fill="#777677" transform="translate(356,241)"/>
<path d="M0,0 Z " fill="#B2B1B2" transform="translate(325,241)"/>
<path d="M0,0 Z " fill="#A8ABAD" transform="translate(80,241)"/>
<path d="M0,0 Z " fill="#7E7F7E" transform="translate(351,239)"/>
<path d="M0,0 Z " fill="#BFC0C0" transform="translate(188,238)"/>
<path d="M0,0 Z " fill="#777775" transform="translate(356,237)"/>
<path d="M0,0 Z " fill="#ABAAAC" transform="translate(79,236)"/>
<path d="M0,0 Z " fill="#B8B9B9" transform="translate(311,234)"/>
<path d="M0,0 Z " fill="#757676" transform="translate(356,233)"/>
<path d="M0,0 Z " fill="#ABADAF" transform="translate(79,233)"/>
<path d="M0,0 Z " fill="#7E7C7D" transform="translate(351,231)"/>
<path d="M0,0 Z " fill="#ADADAE" transform="translate(327,231)"/>
<path d="M0,0 Z " fill="#B8BAB9" transform="translate(311,231)"/>
<path d="M0,0 Z " fill="#ACADAE" transform="translate(79,231)"/>
<path d="M0,0 Z " fill="#C1C5C4" transform="translate(169,230)"/>
<path d="M0,0 Z " fill="#B9BBBB" transform="translate(311,226)"/>
<path d="M0,0 Z " fill="#595A5A" transform="translate(41,226)"/>
<path d="M0,0 Z " fill="#747473" transform="translate(356,225)"/>
<path d="M0,0 Z " fill="#757574" transform="translate(355,223)"/>
<path d="M0,0 Z " fill="#7B7B7A" transform="translate(351,223)"/>
<path d="M0,0 Z " fill="#ABACAD" transform="translate(79,223)"/>
<path d="M0,0 Z " fill="#AAAAAA" transform="translate(323,222)"/>
<path d="M0,0 Z " fill="#727373" transform="translate(356,217)"/>
<path d="M0,0 Z " fill="#C5C7C9" transform="translate(184,217)"/>
<path d="M0,0 Z " fill="#787879" transform="translate(351,215)"/>
<path d="M0,0 Z " fill="#6F706F" transform="translate(356,209)"/>
<path d="M0,0 Z " fill="#AAA9A9" transform="translate(321,209)"/>
<path d="M0,0 Z " fill="#AAA9AB" transform="translate(79,207)"/>
<path d="M0,0 Z " fill="#C5C7C7" transform="translate(188,202)"/>
<path d="M0,0 Z " fill="#BCBEC1" transform="translate(145,202)"/>
<path d="M0,0 Z " fill="#6D6C6C" transform="translate(356,201)"/>
<path d="M0,0 Z " fill="#717170" transform="translate(351,199)"/>
<path d="M0,0 Z " fill="#9D9F9D" transform="translate(319,199)"/>
<path d="M0,0 Z " fill="#C9C9C8" transform="translate(163,199)"/>
<path d="M0,0 Z " fill="#A7A8A7" transform="translate(306,197)"/>
<path d="M0,0 Z " fill="#B5B4B5" transform="translate(85,197)"/>
<path d="M0,0 Z " fill="#595A58" transform="translate(41,194)"/>
<path d="M0,0 Z " fill="#686966" transform="translate(356,193)"/>
<path d="M0,0 Z " fill="#D0D2D2" transform="translate(176,193)"/>
<path d="M0,0 Z " fill="#A6A7A7" transform="translate(305,192)"/>
<path d="M0,0 Z " fill="#8C8D8C" transform="translate(327,191)"/>
<path d="M0,0 Z " fill="#D2D2D3" transform="translate(173,191)"/>
<path d="M0,0 Z " fill="#CACACB" transform="translate(103,191)"/>
<path d="M0,0 Z " fill="#B3B3B4" transform="translate(85,191)"/>
<path d="M0,0 Z " fill="#666665" transform="translate(356,190)"/>
<path d="M0,0 Z " fill="#CCCDCC" transform="translate(164,190)"/>
<path d="M0,0 Z " fill="#CBCECD" transform="translate(156,190)"/>
<path d="M0,0 Z " fill="#C9CDCC" transform="translate(154,190)"/>
<path d="M0,0 Z " fill="#CDCDD0" transform="translate(161,189)"/>
<path d="M0,0 Z " fill="#CACBCC" transform="translate(153,189)"/>
<path d="M0,0 Z " fill="#B5B6B6" transform="translate(87,189)"/>
<path d="M0,0 Z " fill="#CBCDCE" transform="translate(164,188)"/>
<path d="M0,0 Z " fill="#C9CACB" transform="translate(150,188)"/>
<path d="M0,0 Z " fill="#5D5C5C" transform="translate(44,188)"/>
<path d="M0,0 Z " fill="#CAC9CA" transform="translate(105,187)"/>
<path d="M0,0 Z " fill="#CCCECE" transform="translate(162,186)"/>
<path d="M0,0 Z " fill="#646464" transform="translate(356,185)"/>
<path d="M0,0 Z " fill="#D1D0CE" transform="translate(180,185)"/>
<path d="M0,0 Z " fill="#CDCDCF" transform="translate(158,185)"/>
<path d="M0,0 Z " fill="#909293" transform="translate(316,184)"/>
<path d="M0,0 Z " fill="#9D9F9C" transform="translate(303,184)"/>
<path d="M0,0 Z " fill="#CDCFCE" transform="translate(162,184)"/>
<path d="M0,0 Z " fill="#626362" transform="translate(355,183)"/>
<path d="M0,0 Z " fill="#666764" transform="translate(351,183)"/>
<path d="M0,0 Z " fill="#818382" transform="translate(327,183)"/>
<path d="M0,0 Z " fill="#D5D6D5" transform="translate(181,183)"/>
<path d="M0,0 Z " fill="#CFCFD0" transform="translate(157,183)"/>
<path d="M0,0 Z " fill="#D0CFD0" transform="translate(180,182)"/>
<path d="M0,0 Z " fill="#D0D1D1" transform="translate(175,181)"/>
<path d="M0,0 Z " fill="#CFCED0" transform="translate(159,181)"/>
<path d="M0,0 Z " fill="#CECECD" transform="translate(157,181)"/>
<path d="M0,0 Z " fill="#CECFCF" transform="translate(158,180)"/>
<path d="M0,0 Z " fill="#D1D3D2" transform="translate(156,179)"/>
<path d="M0,0 Z " fill="#D3D2D3" transform="translate(153,179)"/>
<path d="M0,0 Z " fill="#D2D2D2" transform="translate(149,179)"/>
<path d="M0,0 Z " fill="#CACACA" transform="translate(133,179)"/>
<path d="M0,0 Z " fill="#CFD1D1" transform="translate(184,178)"/>
<path d="M0,0 Z " fill="#D2D1D2" transform="translate(154,178)"/>
<path d="M0,0 Z " fill="#C9CBCB" transform="translate(112,178)"/>
<path d="M0,0 Z " fill="#5F5E61" transform="translate(356,177)"/>
<path d="M0,0 Z " fill="#D1D1D1" transform="translate(185,177)"/>
<path d="M0,0 Z " fill="#CED0CF" transform="translate(115,177)"/>
<path d="M0,0 Z " fill="#D0D0D2" transform="translate(154,176)"/>
<path d="M0,0 Z " fill="#D1D2D0" transform="translate(146,176)"/>
<path d="M0,0 Z " fill="#CDCECF" transform="translate(138,176)"/>
<path d="M0,0 Z " fill="#BEBDBD" transform="translate(97,176)"/>
<path d="M0,0 Z " fill="#626160" transform="translate(351,175)"/>
<path d="M0,0 Z " fill="#878887" transform="translate(311,175)"/>
<path d="M0,0 Z " fill="#D2D2D2" transform="translate(181,175)"/>
<path d="M0,0 Z " fill="#D1D0D1" transform="translate(153,175)"/>
<path d="M0,0 Z " fill="#D3D3D3" transform="translate(151,175)"/>
<path d="M0,0 Z " fill="#D4D2D4" transform="translate(149,175)"/>
<path d="M0,0 Z " fill="#CECECD" transform="translate(133,175)"/>
<path d="M0,0 Z " fill="#D0D0D1" transform="translate(180,174)"/>
<path d="M0,0 Z " fill="#5D5C5B" transform="translate(356,173)"/>
<path d="M0,0 Z " fill="#D1D0D1" transform="translate(151,173)"/>
<path d="M0,0 Z " fill="#C9CCCB" transform="translate(134,173)"/>
<path d="M0,0 Z " fill="#BDBDBC" transform="translate(96,173)"/>
<path d="M0,0 Z " fill="#C0C2C0" transform="translate(208,171)"/>
<path d="M0,0 Z " fill="#C6C6C7" transform="translate(101,171)"/>
<path d="M0,0 Z " fill="#828284" transform="translate(301,170)"/>
<path d="M0,0 Z " fill="#C3C2C3" transform="translate(209,170)"/>
<path d="M0,0 Z " fill="#D2D3D1" transform="translate(123,170)"/>
<path d="M0,0 Z " fill="#D3D4D4" transform="translate(121,170)"/>
<path d="M0,0 Z " fill="#CFD2D1" transform="translate(119,170)"/>
<path d="M0,0 Z " fill="#5B5B5A" transform="translate(356,169)"/>
<path d="M0,0 Z " fill="#7E8180" transform="translate(302,169)"/>
<path d="M0,0 Z " fill="#D2D1D3" transform="translate(192,169)"/>
<path d="M0,0 Z " fill="#D2D6D4" transform="translate(125,169)"/>
<path d="M0,0 Z " fill="#C5C6C6" transform="translate(102,169)"/>
<path d="M0,0 Z " fill="#808281" transform="translate(304,168)"/>
<path d="M0,0 Z " fill="#D2D3D4" transform="translate(129,168)"/>
<path d="M0,0 Z " fill="#D3D4D4" transform="translate(124,167)"/>
<path d="M0,0 Z " fill="#C7C9C8" transform="translate(104,167)"/>
<path d="M0,0 Z " fill="#C6C8C9" transform="translate(102,167)"/>
<path d="M0,0 Z " fill="#D3D5D4" transform="translate(164,166)"/>
<path d="M0,0 Z " fill="#CAC9C9" transform="translate(105,166)"/>
<path d="M0,0 Z " fill="#777977" transform="translate(308,165)"/>
<path d="M0,0 Z " fill="#D6D7D8" transform="translate(161,165)"/>
<path d="M0,0 Z " fill="#C9CACA" transform="translate(106,165)"/>
<path d="M0,0 Z " fill="#C8C9C9" transform="translate(104,165)"/>
<path d="M0,0 Z " fill="#C7CAC8" transform="translate(107,164)"/>
<path d="M0,0 Z " fill="#BDBEBE" transform="translate(283,163)"/>
<path d="M0,0 Z " fill="#BBBDBE" transform="translate(221,162)"/>
<path d="M0,0 Z " fill="#D9DBDB" transform="translate(146,162)"/>
<path d="M0,0 Z " fill="#565656" transform="translate(356,161)"/>
<path d="M0,0 Z " fill="#CFD1CF" transform="translate(197,161)"/>
<path d="M0,0 Z " fill="#CDCDCF" transform="translate(202,159)"/>
<path d="M0,0 Z " fill="#B3B4B4" transform="translate(236,158)"/>
<path d="M0,0 Z " fill="#B6B7B6" transform="translate(234,157)"/>
<path d="M0,0 Z " fill="#CBCECC" transform="translate(202,157)"/>
<path d="M0,0 Z " fill="#DADADB" transform="translate(134,157)"/>
<path d="M0,0 Z " fill="#CDCECF" transform="translate(112,157)"/>
<path d="M0,0 Z " fill="#D8D6D7" transform="translate(153,155)"/>
<path d="M0,0 Z " fill="#A5A4A6" transform="translate(250,154)"/>
<path d="M0,0 Z " fill="#D9D9DB" transform="translate(173,154)"/>
<path d="M0,0 Z " fill="#D0D0D0" transform="translate(115,154)"/>
<path d="M0,0 Z " fill="#535252" transform="translate(356,153)"/>
<path d="M0,0 Z " fill="#535252" transform="translate(351,151)"/>
<path d="M0,0 Z " fill="#5B5C5A" transform="translate(327,151)"/>
<path d="M0,0 Z " fill="#CACDCE" transform="translate(215,151)"/>
<path d="M0,0 Z " fill="#C8CACB" transform="translate(219,149)"/>
<path d="M0,0 Z " fill="#CCCCCE" transform="translate(109,149)"/>
<path d="M0,0 Z " fill="#CECFD1" transform="translate(110,148)"/>
<path d="M0,0 Z " fill="#D1D4D3" transform="translate(162,147)"/>
<path d="M0,0 Z " fill="#CDCFCE" transform="translate(107,147)"/>
<path d="M0,0 Z " fill="#CBCECE" transform="translate(106,146)"/>
<path d="M0,0 Z " fill="#4F4E4E" transform="translate(356,145)"/>
<path d="M0,0 Z " fill="#C0C2C1" transform="translate(233,145)"/>
<path d="M0,0 Z " fill="#C1C4C3" transform="translate(230,145)"/>
<path d="M0,0 Z " fill="#C0C0C1" transform="translate(228,145)"/>
<path d="M0,0 Z " fill="#C1C2C2" transform="translate(183,143)"/>
<path d="M0,0 Z " fill="#CCCECE" transform="translate(105,143)"/>
<path d="M0,0 Z " fill="#CCCDCE" transform="translate(101,143)"/>
<path d="M0,0 Z " fill="#B0B0B0" transform="translate(81,143)"/>
<path d="M0,0 Z " fill="#BBBDBB" transform="translate(236,142)"/>
<path d="M0,0 Z " fill="#BDBCBE" transform="translate(188,142)"/>
<path d="M0,0 Z " fill="#D7D6D7" transform="translate(157,141)"/>
<path d="M0,0 Z " fill="#CCCCCD" transform="translate(101,141)"/>
<path d="M0,0 Z " fill="#D1D1D2" transform="translate(158,140)"/>
<path d="M0,0 Z " fill="#D5D7D7" transform="translate(135,140)"/>
<path d="M0,0 Z " fill="#D4D4D4" transform="translate(139,139)"/>
<path d="M0,0 Z " fill="#ABABAD" transform="translate(78,138)"/>
<path d="M0,0 Z " fill="#4C4C4B" transform="translate(356,137)"/>
<path d="M0,0 Z " fill="#D3D3D4" transform="translate(154,136)"/>
<path d="M0,0 Z " fill="#D0D3D3" transform="translate(153,135)"/>
<path d="M0,0 Z " fill="#D5D7D7" transform="translate(151,135)"/>
<path d="M0,0 Z " fill="#D4D6D3" transform="translate(133,135)"/>
<path d="M0,0 Z " fill="#D4D5D4" transform="translate(115,135)"/>
<path d="M0,0 Z " fill="#D2D3D3" transform="translate(116,134)"/>
<path d="M0,0 Z " fill="#A5A6A6" transform="translate(321,132)"/>
<path d="M0,0 Z " fill="#D1D1D1" transform="translate(116,132)"/>
<path d="M0,0 Z " fill="#D2D1D2" transform="translate(149,131)"/>
<path d="M0,0 Z " fill="#D2D3D3" transform="translate(130,130)"/>
<path d="M0,0 Z " fill="#D0D0D2" transform="translate(150,129)"/>
<path d="M0,0 Z " fill="#D3D4D2" transform="translate(112,129)"/>
<path d="M0,0 Z " fill="#CED1D3" transform="translate(129,128)"/>
<path d="M0,0 Z " fill="#D1D2D2" transform="translate(113,128)"/>
<path d="M0,0 Z " fill="#D0D1D1" transform="translate(149,127)"/>
<path d="M0,0 Z " fill="#D3D4D3" transform="translate(125,127)"/>
<path d="M0,0 Z " fill="#D4D5D4" transform="translate(95,127)"/>
<path d="M0,0 Z " fill="#CCCCCC" transform="translate(92,126)"/>
<path d="M0,0 Z " fill="#CBCDCC" transform="translate(90,126)"/>
<path d="M0,0 Z " fill="#454646" transform="translate(356,124)"/>
<path d="M0,0 Z " fill="#C9C8C8" transform="translate(153,123)"/>
<path d="M0,0 Z " fill="#D5D4D4" transform="translate(101,123)"/>
<path d="M0,0 Z " fill="#B4B3B5" transform="translate(77,123)"/>
<path d="M0,0 Z " fill="#D4D4D6" transform="translate(121,122)"/>
<path d="M0,0 Z " fill="#666666" transform="translate(41,122)"/>
<path d="M0,0 Z " fill="#464546" transform="translate(356,121)"/>
<path d="M0,0 Z " fill="#CECDCC" transform="translate(139,121)"/>
<path d="M0,0 Z " fill="#C9C8C7" transform="translate(154,120)"/>
<path d="M0,0 Z " fill="#CCCECC" transform="translate(138,120)"/>
<path d="M0,0 Z " fill="#C7C7C7" transform="translate(153,119)"/>
<path d="M0,0 Z " fill="#C8C7C7" transform="translate(151,119)"/>
<path d="M0,0 Z " fill="#CACCCB" transform="translate(140,118)"/>
<path d="M0,0 Z " fill="#C6C6C5" transform="translate(151,117)"/>
<path d="M0,0 Z " fill="#C4C6C5" transform="translate(155,116)"/>
<path d="M0,0 Z " fill="#D1D3D3" transform="translate(106,116)"/>
<path d="M0,0 Z " fill="#D1D2D3" transform="translate(103,116)"/>
<path d="M0,0 Z " fill="#B8BBB8" transform="translate(169,115)"/>
<path d="M0,0 Z " fill="#D5D2D3" transform="translate(109,115)"/>
<path d="M0,0 Z " fill="#D2D2D3" transform="translate(110,114)"/>
<path d="M0,0 Z " fill="#D3D6D6" transform="translate(106,114)"/>
<path d="M0,0 Z " fill="#434243" transform="translate(356,113)"/>
<path d="M0,0 Z " fill="#9B9C9E" transform="translate(317,113)"/>
<path d="M0,0 Z " fill="#C1C0C1" transform="translate(157,111)"/>
<path d="M0,0 Z " fill="#D3D6D6" transform="translate(109,111)"/>
<path d="M0,0 Z " fill="#C0BFC0" transform="translate(77,111)"/>
<path d="M0,0 Z " fill="#BEBDC0" transform="translate(158,110)"/>
<path d="M0,0 Z " fill="#CFCFD0" transform="translate(115,109)"/>
<path d="M0,0 Z " fill="#B3B3B3" transform="translate(171,108)"/>
<path d="M0,0 Z " fill="#BCBDBE" transform="translate(158,108)"/>
<path d="M0,0 Z " fill="#CDCFCF" transform="translate(116,108)"/>
<path d="M0,0 Z " fill="#B9BAB9" transform="translate(157,107)"/>
<path d="M0,0 Z " fill="#A4A4A7" transform="translate(65,107)"/>
<path d="M0,0 Z " fill="#D1D3D3" transform="translate(118,106)"/>
<path d="M0,0 Z " fill="#C9C7CA" transform="translate(133,105)"/>
<path d="M0,0 Z " fill="#B6B7B7" transform="translate(70,105)"/>
<path d="M0,0 Z " fill="#B3B6B7" transform="translate(159,103)"/>
<path d="M0,0 Z " fill="#D2D2D3" transform="translate(102,103)"/>
<path d="M0,0 Z " fill="#CED1CF" transform="translate(99,103)"/>
<path d="M0,0 Z " fill="#A8A8A9" transform="translate(65,103)"/>
<path d="M0,0 Z " fill="#CECFD0" transform="translate(118,102)"/>
<path d="M0,0 Z " fill="#CFCFCD" transform="translate(99,100)"/>
<path d="M0,0 Z " fill="#CCCDCC" transform="translate(86,100)"/>
<path d="M0,0 Z " fill="#BCBBBB" transform="translate(139,99)"/>
<path d="M0,0 Z " fill="#CCCDCD" transform="translate(92,99)"/>
<path d="M0,0 Z " fill="#CCCBCC" transform="translate(85,99)"/>
<path d="M0,0 Z " fill="#CACBCA" transform="translate(98,98)"/>
<path d="M0,0 Z " fill="#CBCDCD" transform="translate(88,98)"/>
<path d="M0,0 Z " fill="#CFD2D0" transform="translate(122,97)"/>
<path d="M0,0 Z " fill="#CECFD0" transform="translate(96,96)"/>
<path d="M0,0 Z " fill="#CCCDCC" transform="translate(90,96)"/>
<path d="M0,0 Z " fill="#404040" transform="translate(353,95)"/>
<path d="M0,0 Z " fill="#CCCCCD" transform="translate(92,94)"/>
<path d="M0,0 Z " fill="#B8BABB" transform="translate(134,93)"/>
<path d="M0,0 Z " fill="#919093" transform="translate(58,93)"/>
<path d="M0,0 Z " fill="#B9BBBA" transform="translate(74,90)"/>
<path d="M0,0 Z " fill="#BDBFC1" transform="translate(78,88)"/>
<path d="M0,0 Z " fill="#3D3C3C" transform="translate(351,87)"/>
<path d="M0,0 Z " fill="#949392" transform="translate(61,87)"/>
<path d="M0,0 Z " fill="#929395" transform="translate(62,86)"/>
<path d="M0,0 Z " fill="#3A3A3A" transform="translate(350,84)"/>
<path d="M0,0 Z " fill="#A7AAA7" transform="translate(126,84)"/>
<path d="M0,0 Z " fill="#969597" transform="translate(64,84)"/>
<path d="M0,0 Z " fill="#909092" transform="translate(62,84)"/>
<path d="M0,0 Z " fill="#383839" transform="translate(350,82)"/>
<path d="M0,0 Z " fill="#B7B7B7" transform="translate(86,81)"/>
<path d="M0,0 Z " fill="#969698" transform="translate(69,79)"/>
<path d="M0,0 Z " fill="#919192" transform="translate(81,71)"/>
<path d="M0,0 Z " fill="#8F9090" transform="translate(79,71)"/>
<path d="M0,0 Z " fill="#929393" transform="translate(96,69)"/>
<path d="M0,0 Z " fill="#2A2A2A" transform="translate(356,68)"/>
<path d="M0,0 Z " fill="#2B292A" transform="translate(356,65)"/>
<path d="M0,0 Z " fill="#2A2C2B" transform="translate(340,63)"/>
<path d="M0,0 Z " fill="#262526" transform="translate(356,60)"/>
<path d="M0,0 Z " fill="#2C2C2A" transform="translate(345,60)"/>
<path d="M0,0 Z " fill="#2A2C2B" transform="translate(343,60)"/>
<path d="M0,0 Z " fill="#2A2A2A" transform="translate(344,59)"/>
<path d="M0,0 Z " fill="#232324" transform="translate(356,57)"/>
<path d="M0,0 Z " fill="#222120" transform="translate(351,55)"/>
<path d="M0,0 Z " fill="#202120" transform="translate(327,55)"/>
<path d="M0,0 Z " fill="#1E1F20" transform="translate(356,52)"/>
<path d="M0,0 Z " fill="#1F1D1E" transform="translate(356,49)"/>
<path d="M0,0 Z " fill="#1A191A" transform="translate(356,41)"/>
<path d="M0,0 Z " fill="#171716" transform="translate(359,39)"/>
<path d="M0,0 Z " fill="#161717" transform="translate(351,39)"/>
<path d="M0,0 Z " fill="#161415" transform="translate(356,33)"/>
<path d="M0,0 Z " fill="#121411" transform="translate(351,31)"/>
<path d="M0,0 Z " fill="#3B3938" transform="translate(165,30)"/>
<path d="M0,0 Z " fill="#383836" transform="translate(23,24)"/>
<path d="M0,0 Z " fill="#0B0D0D" transform="translate(386,18)"/>
<path d="M0,0 Z " fill="#0C0C0B" transform="translate(407,16)"/>
<path d="M0,0 Z " fill="#1F1C1B" transform="translate(285,16)"/>
<path d="M0,0 Z " fill="#282827" transform="translate(116,14)"/>
<path d="M0,0 Z " fill="#080B09" transform="translate(386,10)"/>
<path d="M0,0 Z " fill="#1A1B1A" transform="translate(268,10)"/>
<path d="M0,0 Z " fill="#040806" transform="translate(386,2)"/>
<path d="M0,0 Z " fill="#201F1F" transform="translate(47,0)"/>
</svg>
