<?xml version="1.0" encoding="UTF-8"?>
<svg version="1.1" xmlns="http://www.w3.org/2000/svg" width="410" height="410">
<path d="M0,0 L10,0 L14,2 L17,3 L18,1 L20,3 L24,6 L35,12 L52,24 L57,27 L65,33 L76,40 L79,41 L88,46 L103,52 L106,53 L106,56 L97,59 L87,60 L58,60 L62,61 L89,61 L89,63 L82,64 L95,63 L96,66 L88,73 L72,85 L56,95 L42,103 L27,109 L24,109 L23,112 L23,110 L8,113 L-13,113 L-27,110 L-35,110 L-49,113 L-67,113 L-81,110 L-95,105 L-112,97 L-127,88 L-147,74 L-154,69 L-154,67 L-159,65 L-159,64 L-154,63 L-153,61 L-149,61 L-149,59 L-156,59 L-164,56 L-164,53 L-148,46 L-139,41 L-137,41 L-137,39 L-127,34 L-113,24 L-107,20 L-106,17 L-104,18 L-97,16 L-92,17 L-93,19 L-90,19 L-90,22 L-87,24 L-80,25 L-80,23 L-78,23 L-79,20 L-81,19 L-78,16 L-80,13 L-80,8 L-75,5 L-74,3 L-69,5 L-68,2 L-67,2 L-63,1 L-57,1 L-57,4 L-50,5 L-40,11 L-32,16 L-27,15 L-16,7 L-14,5 L-10,4 L-5,3 L-4,1 Z M-62,2 L-61,4 Z M-32,17 Z M-30,17 Z M-77,55 L-76,57 L-75,55 Z M-74,55 L-71,63 L-55,65 L-40,69 L-36,70 L-29,70 L-29,68 L-25,67 L-20,68 L-17,69 L5,64 L6,63 L31,62 L33,61 L33,63 L47,64 L48,61 L44,60 L49,59 L49,58 L39,58 L38,62 L38,57 L30,57 L28,58 L28,56 L19,56 L16,55 L6,55 L-13,58 L-23,60 L-33,60 L-53,56 L-59,56 L-60,55 Z M-81,56 Z M-75,56 Z M-78,57 L-77,60 Z M-86,56 L-88,57 L-103,58 L-101,63 L-81,63 L-82,56 Z M-81,58 Z M-76,58 Z M-110,59 L-110,60 L-103,60 L-103,59 Z M-148,60 L-147,63 L-146,61 L-133,62 L-133,60 Z M-132,60 L-132,61 L-127,61 L-127,60 Z M-126,60 Z M-112,59 L-124,60 L-122,62 L-122,65 L-106,65 L-110,62 L-111,64 L-111,61 Z M-81,60 Z M-79,60 L-80,62 L-74,62 L-78,60 Z M-109,61 Z M-103,61 Z M51,61 Z M-151,62 L-152,64 L-149,64 L-149,62 Z M-144,62 L-142,64 L-142,62 Z M-136,62 L-136,65 L-131,64 L-134,62 Z M-130,62 L-129,64 Z M-106,62 L-105,64 L-104,62 Z M72,62 L66,64 L66,65 L80,65 L79,62 L79,64 L74,64 L74,62 Z M-148,63 L-148,65 L-146,64 Z M-128,63 Z M-103,63 Z M54,62 L49,63 L49,64 L55,64 Z M62,62 L56,63 L56,64 L63,65 Z M65,63 Z M-145,64 Z M-129,65 Z M-126,65 Z M-27,68 L-28,70 L-21,70 L-25,68 Z M-32,108 Z " fill="#FBFBFB" transform="translate(240,182)"/>
<path d="M0,0 L6,0 L9,2 L10,5 L10,15 L18,22 L23,26 L28,21 L32,18 L39,17 L45,21 L47,25 L46,34 L42,41 L45,46 L55,56 L62,64 L66,68 L73,76 L77,82 L78,88 L74,95 L76,99 L88,111 L88,113 L90,113 L90,115 L92,115 L93,119 L90,122 L85,122 L68,106 L66,104 L64,105 L64,103 L60,105 L53,106 L53,104 L49,102 L45,100 L45,98 L41,96 L36,91 L25,80 L18,72 L13,68 L7,71 L5,73 L2,76 L-1,76 L-2,73 L-8,69 L-11,65 L-10,58 L-4,50 L-5,46 L-11,39 L-15,35 L-22,33 L-27,28 L-26,20 L-16,10 L-2,1 Z M1,10 Z M-2,11 L0,14 L0,11 Z M-3,12 L-8,15 L-11,18 L-10,20 L-5,18 L-2,15 Z M-14,20 L-16,22 L-17,25 L-13,24 L-10,21 Z M-10,20 Z M3,21 L-5,28 L-7,29 L-7,31 L0,37 L5,43 L12,39 L16,35 L15,31 L9,30 L10,27 Z M36,26 L33,29 L38,28 Z M11,28 Z M12,29 Z M32,29 L26,37 L29,38 L29,36 L31,36 L32,39 L35,36 L35,30 Z M37,29 Z M35,32 Z M25,38 L27,40 L27,38 Z M23,39 L18,44 L8,52 L7,54 L4,54 L2,58 L5,61 L10,59 L14,55 L12,53 L14,52 L15,55 L16,53 L21,51 L20,49 L21,48 L25,47 L27,44 L27,41 L25,41 L25,39 Z M28,39 Z M30,39 L31,41 Z M28,41 L29,43 Z M27,43 Z M33,50 Z M35,50 L35,53 L32,51 L22,61 L25,66 L40,81 L44,79 L49,74 L49,71 L48,66 L48,63 L42,56 L40,56 L38,52 Z M1,58 L0,60 L2,60 Z M-1,60 L0,62 Z M1,61 Z M0,62 Z M49,65 L49,70 L52,67 Z M52,68 L54,72 L54,69 Z M55,72 Z M50,73 Z M56,73 Z M57,74 L58,76 Z M58,76 L51,84 L47,88 L55,95 L61,94 L64,92 L64,90 L67,89 L68,85 L65,82 L60,76 Z " fill="#EAEBEB" transform="translate(65,79)"/>
<path d="M0,0 L21,0 L35,3 L35,4 L26,3 L20,2 L20,4 L18,3 L19,1 L6,2 L8,8 L24,10 L39,14 L50,16 L50,14 L54,12 L58,13 L67,14 L64,16 L56,18 L47,18 L14,11 L-13,11 L-38,13 L-66,13 L-75,12 L-78,12 L-80,10 L-75,9 L-74,7 L-70,7 L-70,5 L-77,5 L-77,4 L-37,4 Z M2,1 L3,3 L4,1 Z M-2,2 Z M4,2 Z M1,3 L2,6 Z M-7,2 L-9,3 L-24,4 L-22,9 L-2,9 L-3,2 Z M-2,4 Z M3,4 Z M-31,5 L-31,6 L-24,6 L-24,5 Z M-69,6 L-68,9 L-67,7 L-54,8 L-54,6 Z M-53,6 L-53,7 L-48,7 L-48,6 Z M-47,6 Z M-33,5 L-45,6 L-43,8 L-43,11 L-27,11 L-31,8 L-32,10 L-32,7 Z M-2,6 Z M0,6 L-1,8 L5,8 L1,6 Z M-30,7 Z M-24,7 Z M-72,8 L-73,10 L-70,10 L-70,8 Z M-65,8 L-63,10 L-63,8 Z M-57,8 L-57,11 L-52,10 L-55,8 Z M-51,8 L-50,10 Z M-27,8 L-26,10 L-25,8 Z M-69,9 L-69,11 L-67,10 Z M-49,9 Z M-24,9 Z M-66,10 Z M-50,11 Z M-47,11 Z M52,14 L51,16 L58,16 L54,14 Z " fill="#DADCDB" transform="translate(161,236)"/>
<path d="M0,0 L19,0 L50,3 L67,4 L96,4 L96,5 L86,6 L57,6 L61,7 L88,7 L88,9 L81,10 L94,9 L95,12 L92,14 L92,12 L55,12 L27,10 L16,10 L1,12 L-8,14 L-13,14 L-10,12 L3,9 L5,8 L32,7 L32,9 L45,9 L45,7 L40,6 L38,4 L38,7 L41,8 L37,8 L36,5 L37,3 L27,4 L28,7 L26,7 L26,3 L18,3 L15,2 L5,2 L-14,5 L-18,4 Z M50,7 Z M71,8 L65,10 L65,11 L79,11 L78,8 L78,10 L73,10 L73,8 Z M53,8 L48,9 L48,10 L54,10 Z M61,8 L55,9 L55,10 L62,11 Z M64,9 Z " fill="#BDBEBD" transform="translate(241,236)"/>
<path d="M0,0 L21,0 L35,3 L35,4 L26,3 L20,2 L20,4 L18,3 L19,1 L-7,3 L-9,4 L-24,5 L-33,6 L-69,6 L-68,8 L-67,7 L-55,7 L-57,11 L-42,12 L-42,13 L-66,13 L-75,12 L-78,12 L-80,10 L-75,9 L-74,7 L-70,7 L-70,5 L-77,5 L-77,4 L-37,4 Z M-72,8 L-73,10 L-70,10 L-70,8 Z M-65,8 L-63,10 L-63,8 Z M-69,9 L-69,11 L-67,10 Z M-66,10 Z " fill="#B3B4B3" transform="translate(161,236)"/>
<path d="M0,0 L10,0 L10,3 L17,4 L24,8 L22,9 L13,5 L0,5 L-9,8 L-12,8 L-11,11 L-8,14 L-8,21 L-12,25 L-18,26 L-27,21 L-29,19 L-35,19 L-45,25 L-49,28 L-51,27 L-40,19 L-39,16 L-37,17 L-30,15 L-25,16 L-26,18 L-23,18 L-23,21 L-20,23 L-13,24 L-13,22 L-11,22 L-12,19 L-14,18 L-11,15 L-13,12 L-13,7 L-8,4 L-7,2 L-2,4 L-1,1 L0,1 Z M5,1 L6,3 Z " fill="#C3C5C5" transform="translate(173,183)"/>
<path d="M0,0 L4,1 L6,5 L0,12 L-7,16 L-12,15 L-14,13 L-15,8 L-10,7 L-4,3 L-3,1 Z " fill="#E9EAEA" transform="translate(179,156)"/>
<path d="M0,0 L2,0 L3,4 L5,3 L7,5 L9,4 L9,6 L11,6 L18,14 L22,19 L21,25 L13,31 L7,31 L-1,24 L-2,21 L6,15 L9,14 L7,10 L2,7 Z M8,7 Z M9,8 Z M10,9 L11,11 Z M11,11 L4,19 L0,23 L8,30 L14,29 L17,27 L17,25 L20,24 L21,20 L18,17 L13,11 Z " fill="#BBBCBC" transform="translate(112,144)"/>
<path d="M0,0 L2,1 L1,3 L2,7 L2,15 L-3,18 L-7,17 L-8,11 L-6,4 L-3,2 Z " fill="#D0D2D2" transform="translate(165,142)"/>
<path d="M0,0 L21,0 L35,3 L35,4 L26,3 L20,2 L20,4 L18,3 L19,1 L-7,3 L-9,4 L-24,5 L-33,6 L-57,6 L-57,5 L-26,3 Z " fill="#C4C6C6" transform="translate(161,236)"/>
<path d="M0,0 L10,0 L20,2 L37,6 L44,7 L44,5 L48,3 L52,4 L61,5 L58,7 L50,9 L41,9 L8,2 L0,1 Z M46,5 L45,7 L52,7 L48,5 Z " fill="#D4D5D5" transform="translate(167,245)"/>
<path d="M0,0 L19,0 L40,2 L38,7 L41,8 L37,8 L36,5 L37,3 L27,4 L28,7 L26,7 L26,3 L18,3 L15,2 L5,2 L-14,5 L-18,4 Z " fill="#D1D3D3" transform="translate(241,236)"/>
<path d="M0,0 L10,3 L18,5 L44,5 L44,6 L38,7 L17,7 L3,4 L-5,4 L-19,7 L-20,5 L-6,2 Z M-2,2 Z " fill="#B1B3B2" transform="translate(210,288)"/>
<path d="M0,0 L10,0 L10,3 L17,4 L24,8 L22,9 L13,5 L0,5 L-9,8 L-12,8 L-11,11 L-9,12 L-9,14 L-13,12 L-13,7 L-8,4 L-7,2 L-2,4 L-1,1 L0,1 Z M5,1 L6,3 Z " fill="#C4C5C4" transform="translate(173,183)"/>
<path d="M0,0 L2,0 L3,3 L-14,3 L-29,5 L-38,7 L-43,7 L-40,5 L-27,2 L-25,1 Z " fill="#D3D4D3" transform="translate(271,243)"/>
<path d="M0,0 L27,0 L27,2 L20,3 L17,3 L12,3 L12,1 L9,3 L1,3 Z " fill="#DBDCDC" transform="translate(302,243)"/>
<path d="M0,0 L10,0 L14,2 L17,3 L18,1 L20,3 L22,6 L12,4 L-4,4 L-10,5 L-8,3 L-5,3 L-4,1 Z " fill="#B4B6B5" transform="translate(240,182)"/>
<path d="M0,0 L2,3 L-4,10 L-11,14 L-16,13 L-18,11 L-19,6 L-14,5 L-11,5 L-15,9 L-15,11 L-8,10 L-1,4 Z " fill="#AEAFAF" transform="translate(183,158)"/>
<path d="M0,0 L9,0 L17,1 L21,4 L14,5 L13,4 L6,4 L5,2 L0,1 Z M10,2 Z " fill="#E4E5E5" transform="translate(281,241)"/>
<path d="M0,0 L2,0 L3,4 L5,3 L7,5 L9,4 L9,6 L11,7 L10,9 L11,12 L9,14 L7,10 L2,7 Z M8,7 Z " fill="#C5C7C6" transform="translate(112,144)"/>
<path d="M0,0 L3,0 L3,5 L-4,11 L-6,10 L-5,7 L-2,7 L-3,5 L-7,8 L-7,5 Z M1,2 Z M-2,3 L0,6 L0,3 Z " fill="#AAABAB" transform="translate(65,87)"/>
<path d="M0,0 L3,1 L2,4 L-5,4 L-19,7 L-20,5 L-6,2 Z M-2,2 Z " fill="#B9BBBA" transform="translate(210,288)"/>
<path d="M0,0 L2,0 L2,5 L6,7 L2,9 L-3,9 L-4,6 Z M0,3 L-1,5 L1,5 Z M-2,5 L-1,7 Z M0,6 Z M-1,7 Z " fill="#C1C2C2" transform="translate(66,134)"/>
<path d="M0,0 L3,1 L-1,3 L-3,5 L-6,8 L-9,8 L-10,5 L-12,3 Z " fill="#B0B1B1" transform="translate(73,147)"/>
<path d="M0,0 L2,3 L-1,5 L-1,3 L-21,3 L-21,2 Z " fill="#ACADAC" transform="translate(334,245)"/>
<path d="M0,0 L4,0 L4,3 L9,3 L9,4 L1,4 L1,2 L-2,4 L-7,3 L-7,1 Z M1,1 Z " fill="#E8EAEA" transform="translate(147,240)"/>
<path d="M0,0 L2,1 L-5,9 L-10,13 L-9,9 Z " fill="#B4B6B6" transform="translate(49,89)"/>
<path d="M0,0 L5,2 L12,1 L16,0 L17,2 L15,4 L15,2 L11,4 L4,5 L4,3 L0,1 Z " fill="#B9BABA" transform="translate(114,180)"/>
<path d="M0,0 L4,1 L3,8 L-2,6 L-2,4 L1,2 L-1,1 Z M2,4 Z " fill="#BEBEBE" transform="translate(100,104)"/>
<path d="M0,0 L2,0 L1,3 L0,6 L-5,7 L-6,9 L-7,6 Z " fill="#B2B4B3" transform="translate(55,94)"/>
<path d="M0,0 L10,0 L10,2 L3,3 L1,4 Z " fill="#C6C6C7" transform="translate(319,243)"/>
<path d="M0,0 L2,0 L2,7 L-1,8 L-2,5 L-4,4 Z " fill="#D9DADA" transform="translate(163,197)"/>
<path d="M0,0 L2,0 L2,6 L-3,8 L-4,3 L0,2 Z M-1,3 Z " fill="#CACBCB" transform="translate(94,115)"/>
<path d="M0,0 L4,1 L4,6 L-2,5 Z M0,2 Z " fill="#EAEBEC" transform="translate(164,238)"/>
<path d="M0,0 L5,1 L4,3 L7,3 L7,5 L3,6 L0,3 Z " fill="#DEDEDD" transform="translate(143,198)"/>
<path d="M0,0 L2,0 L3,4 L5,3 L6,7 L2,7 Z " fill="#CFCFD0" transform="translate(112,144)"/>
<path d="M0,0 L2,0 L0,4 L0,8 L-3,9 L-4,6 Z " fill="#B2B4B3" transform="translate(66,134)"/>
<path d="M0,0 L5,0 L3,5 L0,6 L-1,3 Z M1,2 Z M1,4 Z " fill="#EAEBEB" transform="translate(158,238)"/>
<path d="M0,0 L7,0 L7,3 L2,3 L2,1 Z " fill="#D4D5D5" transform="translate(312,243)"/>
<path d="M0,0 L3,1 L0,4 L-2,1 Z " fill="#D2D3D3" transform="translate(80,127)"/>
<path d="M0,0 L2,3 L-4,5 Z " fill="#ECECED" transform="translate(254,239)"/>
<path d="M0,0 L2,0 L2,2 L6,3 L1,3 Z " fill="#ECEEEE" transform="translate(191,245)"/>
<path d="M0,0 L2,0 L1,4 L-1,3 Z " fill="#D0D0D1" transform="translate(88,122)"/>
<path d="M0,0 L5,0 L1,2 Z " fill="#ECEEEE" transform="translate(219,243)"/>
<path d="M0,0 L5,1 L5,2 L-1,2 Z " fill="#EAEBED" transform="translate(171,242)"/>
<path d="M0,0 L3,3 L0,3 Z " fill="#C9CACA" transform="translate(63,109)"/>
<path d="M0,0 L4,2 L-1,2 Z " fill="#C4C6C5" transform="translate(154,291)"/>
<path d="M0,0 L3,1 L1,1 L0,4 Z " fill="#BABABB" transform="translate(115,273)"/>
<path d="M0,0 L3,2 L1,3 L-1,1 Z " fill="#EEEFEF" transform="translate(221,246)"/>
<path d="M0,0 L5,0 L4,2 Z " fill="#EBEEEE" transform="translate(209,244)"/>
<path d="M0,0 L2,3 L-1,3 Z " fill="#E9EBEB" transform="translate(262,239)"/>
<path d="M0,0 L4,0 L4,2 Z " fill="#CECFCF" transform="translate(107,215)"/>
<path d="M0,0 L2,2 L2,4 L0,4 Z " fill="#C7C7C7" transform="translate(99,169)"/>
<path d="M0,0 L2,2 L-1,4 Z " fill="#D1D3D3" transform="translate(111,149)"/>
<path d="M0,0 L1,4 L-2,2 L0,2 Z " fill="#CACACB" transform="translate(67,111)"/>
<path d="M0,0 L4,1 L2,3 L2,1 Z " fill="#CACACC" transform="translate(65,105)"/>
<path d="M0,0 L3,0 L3,2 L0,2 Z " fill="#EDEEED" transform="translate(207,249)"/>
<path d="M0,0 L2,2 L0,4 Z " fill="#969797" transform="translate(79,246)"/>
<path d="M0,0 L1,3 L-1,3 Z " fill="#ECEDEE" transform="translate(238,243)"/>
<path d="M0,0 L0,3 L-2,1 Z " fill="#EBECED" transform="translate(238,239)"/>
<path d="M0,0 L2,0 L2,2 L0,2 Z " fill="#BFBFC0" transform="translate(145,288)"/>
<path d="M0,0 L2,1 L0,3 Z " fill="#BCBBBD" transform="translate(129,281)"/>
<path d="M0,0 L3,2 L0,2 Z " fill="#BFC1C0" transform="translate(109,268)"/>
<path d="M0,0 L1,2 L-2,1 Z " fill="#EAECEB" transform="translate(189,245)"/>
<path d="M0,0 L2,2 L-1,1 Z " fill="#ECECED" transform="translate(190,240)"/>
<path d="M0,0 L0,3 Z " fill="#EBECED" transform="translate(246,239)"/>
<path d="M0,0 L2,1 L-1,1 Z " fill="#DCDCDE" transform="translate(132,198)"/>
<path d="M0,0 L2,2 L-1,1 Z " fill="#D7D8D7" transform="translate(168,184)"/>
<path d="M0,0 L2,2 L0,3 Z " fill="#ACACAD" transform="translate(43,113)"/>
<path d="M0,0 L2,1 L0,2 Z " fill="#C3C3C3" transform="translate(179,296)"/>
<path d="M0,0 L3,1 Z " fill="#C4C5C5" transform="translate(158,293)"/>
<path d="M0,0 L3,1 Z " fill="#EBECEB" transform="translate(179,244)"/>
<path d="M0,0 L3,1 Z " fill="#EBECED" transform="translate(246,243)"/>
<path d="M0,0 L1,2 L-1,1 Z " fill="#EBECEE" transform="translate(203,243)"/>
<path d="M0,0 L3,1 Z " fill="#EEEEEE" transform="translate(224,242)"/>
<path d="M0,0 L1,2 L-1,1 Z " fill="#EAEBEC" transform="translate(174,240)"/>
<path d="M0,0 L2,2 L0,2 Z " fill="#D4D5D4" transform="translate(115,211)"/>
<path d="M0,0 Z " fill="#DDDDDD" transform="translate(129,201)"/>
<path d="M0,0 L2,2 L0,2 Z " fill="#D6D7D7" transform="translate(131,187)"/>
<path d="M0,0 L3,1 Z " fill="#D9D8D8" transform="translate(159,185)"/>
<path d="M0,0 L3,1 Z " fill="#C9CBCB" transform="translate(236,182)"/>
<path d="M0,0 L2,2 L0,2 Z " fill="#C8C8C9" transform="translate(166,171)"/>
<path d="M0,0 L2,0 L1,2 Z " fill="#D4D6D5" transform="translate(115,167)"/>
<path d="M0,0 Z " fill="#B8BAB9" transform="translate(166,158)"/>
<path d="M0,0 Z " fill="#D3D3D3" transform="translate(107,155)"/>
<path d="M0,0 L1,2 L-1,1 Z " fill="#CDCECD" transform="translate(108,139)"/>
<path d="M0,0 L2,1 L0,2 Z " fill="#D2D3D4" transform="translate(74,135)"/>
<path d="M0,0 L2,1 L0,2 Z " fill="#C8C9C9" transform="translate(69,111)"/>
<path d="M0,0 L2,2 L0,2 Z " fill="#CACCCB" transform="translate(69,108)"/>
<path d="M0,0 L2,1 L0,2 Z " fill="#C9C9CA" transform="translate(69,103)"/>
<path d="M0,0 L2,1 Z " fill="#111211" transform="translate(65,353)"/>
<path d="M0,0 L2,1 Z " fill="#171616" transform="translate(65,345)"/>
<path d="M0,0 L2,1 Z " fill="#1D1C1D" transform="translate(65,337)"/>
<path d="M0,0 L2,1 Z " fill="#242324" transform="translate(65,329)"/>
<path d="M0,0 L2,1 Z " fill="#2B2A2A" transform="translate(65,321)"/>
<path d="M0,0 L2,1 Z " fill="#333232" transform="translate(65,313)"/>
<path d="M0,0 L2,1 Z " fill="#3B3A3A" transform="translate(65,305)"/>
<path d="M0,0 L2,1 Z " fill="#444243" transform="translate(65,297)"/>
<path d="M0,0 L2,1 Z " fill="#C4C3C3" transform="translate(245,296)"/>
<path d="M0,0 L2,1 Z " fill="#585557" transform="translate(65,281)"/>
<path d="M0,0 L2,1 Z " fill="#BEC0C0" transform="translate(121,276)"/>
<path d="M0,0 Z " fill="#B6B5B8" transform="translate(113,273)"/>
<path d="M0,0 L2,1 Z " fill="#616160" transform="translate(65,273)"/>
<path d="M0,0 L2,1 Z " fill="#BCBCBD" transform="translate(104,265)"/>
<path d="M0,0 L2,1 Z " fill="#6B6A6A" transform="translate(65,265)"/>
<path d="M0,0 L2,1 Z " fill="#737272" transform="translate(65,257)"/>
<path d="M0,0 L2,1 Z " fill="#40403F" transform="translate(19,252)"/>
<path d="M0,0 Z " fill="#F0F1F1" transform="translate(201,248)"/>
<path d="M0,0 L2,1 Z " fill="#787878" transform="translate(65,249)"/>
<path d="M0,0 L2,1 Z " fill="#EEF0F1" transform="translate(198,248)"/>
<path d="M0,0 L2,1 Z " fill="#EFF1F1" transform="translate(228,247)"/>
<path d="M0,0 L2,1 Z " fill="#EAEBEB" transform="translate(198,243)"/>
<path d="M0,0 L2,1 Z " fill="#E9EAEC" transform="translate(177,243)"/>
<path d="M0,0 Z " fill="#E9E9E9" transform="translate(265,241)"/>
<path d="M0,0 Z " fill="#EAEAEB" transform="translate(259,241)"/>
<path d="M0,0 Z " fill="#ECECEC" transform="translate(193,241)"/>
<path d="M0,0 Z " fill="#EAEBEC" transform="translate(179,241)"/>
<path d="M0,0 Z " fill="#EAEDEC" transform="translate(275,240)"/>
<path d="M0,0 L2,1 Z " fill="#ECEDEE" transform="translate(152,241)"/>
<path d="M0,0 L2,1 Z " fill="#7C7C7C" transform="translate(65,241)"/>
<path d="M0,0 L2,1 Z " fill="#E9EAEB" transform="translate(270,240)"/>
<path d="M0,0 L2,1 Z " fill="#E9ECEB" transform="translate(243,239)"/>
<path d="M0,0 L2,1 Z " fill="#E9EAEA" transform="translate(182,239)"/>
<path d="M0,0 L2,1 Z " fill="#7C7B7B" transform="translate(65,225)"/>
<path d="M0,0 Z " fill="#494947" transform="translate(19,220)"/>
<path d="M0,0 Z " fill="#BABBBA" transform="translate(313,216)"/>
<path d="M0,0 L2,1 Z " fill="#7E7D7D" transform="translate(65,209)"/>
<path d="M0,0 L2,1 Z " fill="#D8DADA" transform="translate(124,206)"/>
<path d="M0,0 L2,1 Z " fill="#E6E7E6" transform="translate(157,203)"/>
<path d="M0,0 Z " fill="#E6E7E7" transform="translate(153,202)"/>
<path d="M0,0 L2,1 Z " fill="#DEDFE0" transform="translate(131,201)"/>
<path d="M0,0 L2,1 Z " fill="#807F80" transform="translate(65,201)"/>
<path d="M0,0 Z " fill="#C7C7C7" transform="translate(285,198)"/>
<path d="M0,0 Z " fill="#DFE2E0" transform="translate(159,196)"/>
<path d="M0,0 Z " fill="#525251" transform="translate(19,196)"/>
<path d="M0,0 L2,1 Z " fill="#DDDFDE" transform="translate(203,194)"/>
<path d="M0,0 Z " fill="#E1E3E2" transform="translate(158,193)"/>
<path d="M0,0 L2,1 Z " fill="#838283" transform="translate(65,193)"/>
<path d="M0,0 Z " fill="#D7D8D9" transform="translate(163,186)"/>
<path d="M0,0 L2,1 Z " fill="#C2C4C3" transform="translate(262,186)"/>
<path d="M0,0 Z " fill="#D1D1D2" transform="translate(225,184)"/>
<path d="M0,0 L2,1 Z " fill="#D1D3D2" transform="translate(189,185)"/>
<path d="M0,0 Z " fill="#D2D2D4" transform="translate(187,184)"/>
<path d="M0,0 Z " fill="#D4D6D6" transform="translate(131,184)"/>
<path d="M0,0 L2,1 Z " fill="#8A8A8A" transform="translate(65,185)"/>
<path d="M0,0 Z " fill="#C0C2C0" transform="translate(262,183)"/>
<path d="M0,0 Z " fill="#D0D1D2" transform="translate(185,183)"/>
<path d="M0,0 Z " fill="#D5D6D5" transform="translate(166,183)"/>
<path d="M0,0 L2,1 Z " fill="#BEC0BF" transform="translate(259,182)"/>
<path d="M0,0 Z " fill="#5A5A5A" transform="translate(19,180)"/>
<path d="M0,0 L2,1 Z " fill="#C8CAC9" transform="translate(107,180)"/>
<path d="M0,0 L2,1 Z " fill="#929292" transform="translate(65,177)"/>
<path d="M0,0 Z " fill="#BDBFBF" transform="translate(179,168)"/>
<path d="M0,0 Z " fill="#D4D7D4" transform="translate(118,167)"/>
<path d="M0,0 Z " fill="#D7D6D6" transform="translate(116,164)"/>
<path d="M0,0 L2,1 Z " fill="#A8A8A8" transform="translate(65,161)"/>
<path d="M0,0 L2,1 Z " fill="#6F6F6F" transform="translate(19,148)"/>
<path d="M0,0 Z " fill="#D1D1D0" transform="translate(91,140)"/>
<path d="M0,0 Z " fill="#CFCECE" transform="translate(105,136)"/>
<path d="M0,0 L2,1 Z " fill="#C8C9C8" transform="translate(69,135)"/>
<path d="M0,0 L2,1 Z " fill="#C3C4C5" transform="translate(59,127)"/>
<path d="M0,0 L2,1 Z " fill="#CDCFD0" transform="translate(88,120)"/>
<path d="M0,0 Z " fill="#CFCFCE" transform="translate(78,111)"/>
<path d="M0,0 Z " fill="#D1D2D3" transform="translate(72,107)"/>
<path d="M0,0 Z " fill="#CBCCCB" transform="translate(70,106)"/>
<path d="M0,0 Z " fill="#CACCCB" transform="translate(63,106)"/>
<path d="M0,0 Z " fill="#6E6F6F" transform="translate(19,100)"/>
<path d="M0,0 Z " fill="#626263" transform="translate(19,89)"/>
<path d="M0,0 Z " fill="#959696" transform="translate(45,88)"/>
<path d="M0,0 Z " fill="#9D9F9E" transform="translate(76,84)"/>
<path d="M0,0 Z " fill="#5D5D5D" transform="translate(19,84)"/>
<path d="M0,0 Z " fill="#525253" transform="translate(19,76)"/>
<path d="M0,0 L2,1 Z " fill="#7C7D7D" transform="translate(65,73)"/>
<path d="M0,0 Z " fill="#454646" transform="translate(19,68)"/>
<path d="M0,0 L2,1 Z " fill="#646565" transform="translate(65,65)"/>
<path d="M0,0 L2,1 Z " fill="#515151" transform="translate(65,57)"/>
<path d="M0,0 L2,1 Z " fill="#434343" transform="translate(65,49)"/>
<path d="M0,0 Z " fill="#010102" transform="translate(384,408)"/>
<path d="M0,0 Z " fill="#0A090A" transform="translate(95,406)"/>
<path d="M0,0 Z " fill="#000302" transform="translate(386,402)"/>
<path d="M0,0 Z " fill="#121110" transform="translate(111,400)"/>
<path d="M0,0 Z " fill="#020403" transform="translate(386,394)"/>
<path d="M0,0 Z " fill="#000100" transform="translate(407,392)"/>
<path d="M0,0 Z " fill="#050505" transform="translate(381,392)"/>
<path d="M0,0 Z " fill="#040404" transform="translate(22,392)"/>
<path d="M0,0 Z " fill="#040705" transform="translate(386,386)"/>
<path d="M0,0 Z " fill="#0A0A0B" transform="translate(360,386)"/>
<path d="M0,0 Z " fill="#080707" transform="translate(384,384)"/>
<path d="M0,0 Z " fill="#0C0B0A" transform="translate(47,384)"/>
<path d="M0,0 Z " fill="#151513" transform="translate(76,382)"/>
<path d="M0,0 Z " fill="#070907" transform="translate(386,378)"/>
<path d="M0,0 Z " fill="#090C0C" transform="translate(386,370)"/>
<path d="M0,0 Z " fill="#0D0D0C" transform="translate(386,366)"/>
<path d="M0,0 Z " fill="#292929" transform="translate(95,366)"/>
<path d="M0,0 Z " fill="#212022" transform="translate(73,364)"/>
<path d="M0,0 Z " fill="#0E100F" transform="translate(386,362)"/>
<path d="M0,0 Z " fill="#121212" transform="translate(384,360)"/>
<path d="M0,0 Z " fill="#121413" transform="translate(386,354)"/>
<path d="M0,0 Z " fill="#454645" transform="translate(290,354)"/>
<path d="M0,0 Z " fill="#363535" transform="translate(165,353)"/>
<path d="M0,0 Z " fill="#191817" transform="translate(81,353)"/>
<path d="M0,0 Z " fill="#090909" transform="translate(17,353)"/>
<path d="M0,0 Z " fill="#3C3939" transform="translate(95,352)"/>
<path d="M0,0 Z " fill="#191917" transform="translate(23,352)"/>
<path d="M0,0 Z " fill="#3F3E3E" transform="translate(95,350)"/>
<path d="M0,0 Z " fill="#3C3B3C" transform="translate(259,348)"/>
<path d="M0,0 Z " fill="#424040" transform="translate(165,345)"/>
<path d="M0,0 Z " fill="#111010" transform="translate(407,344)"/>
<path d="M0,0 Z " fill="#5D5A5A" transform="translate(285,344)"/>
<path d="M0,0 Z " fill="#171717" transform="translate(67,344)"/>
<path d="M0,0 Z " fill="#1F201D" transform="translate(23,344)"/>
<path d="M0,0 Z " fill="#1E1F1F" transform="translate(386,338)"/>
<path d="M0,0 Z " fill="#4F4E4E" transform="translate(165,337)"/>
<path d="M0,0 Z " fill="#545252" transform="translate(166,335)"/>
<path d="M0,0 Z " fill="#7B7A78" transform="translate(165,334)"/>
<path d="M0,0 Z " fill="#232624" transform="translate(386,330)"/>
<path d="M0,0 Z " fill="#605E5E" transform="translate(165,329)"/>
<path d="M0,0 Z " fill="#393938" transform="translate(94,327)"/>
<path d="M0,0 Z " fill="#676766" transform="translate(165,325)"/>
<path d="M0,0 Z " fill="#161616" transform="translate(19,325)"/>
<path d="M0,0 Z " fill="#716E6F" transform="translate(165,321)"/>
<path d="M0,0 Z " fill="#535250" transform="translate(117,321)"/>
<path d="M0,0 Z " fill="#545452" transform="translate(116,319)"/>
<path d="M0,0 Z " fill="#7B7B7B" transform="translate(165,317)"/>
<path d="M0,0 Z " fill="#868484" transform="translate(165,313)"/>
<path d="M0,0 Z " fill="#383937" transform="translate(70,311)"/>
<path d="M0,0 Z " fill="#1F211F" transform="translate(19,308)"/>
<path d="M0,0 Z " fill="#A7A8A7" transform="translate(246,304)"/>
<path d="M0,0 Z " fill="#A3A4A3" transform="translate(166,303)"/>
<path d="M0,0 Z " fill="#737472" transform="translate(116,303)"/>
<path d="M0,0 Z " fill="#B3B4B2" transform="translate(183,301)"/>
<path d="M0,0 Z " fill="#AAABAB" transform="translate(165,301)"/>
<path d="M0,0 Z " fill="#B7B8B8" transform="translate(190,299)"/>
<path d="M0,0 Z " fill="#242424" transform="translate(18,299)"/>
<path d="M0,0 Z " fill="#BEBEBF" transform="translate(190,297)"/>
<path d="M0,0 Z " fill="#C0C1C0" transform="translate(181,297)"/>
<path d="M0,0 Z " fill="#B9B7B8" transform="translate(165,297)"/>
<path d="M0,0 Z " fill="#4A4948" transform="translate(73,297)"/>
<path d="M0,0 Z " fill="#242424" transform="translate(17,297)"/>
<path d="M0,0 Z " fill="#C8C7C7" transform="translate(241,296)"/>
<path d="M0,0 Z " fill="#C5C4C2" transform="translate(238,296)"/>
<path d="M0,0 Z " fill="#C4C4C3" transform="translate(182,296)"/>
<path d="M0,0 Z " fill="#C4C4C4" transform="translate(177,296)"/>
<path d="M0,0 Z " fill="#C1C3C2" transform="translate(174,296)"/>
<path d="M0,0 Z " fill="#C5C6C5" transform="translate(196,295)"/>
<path d="M0,0 Z " fill="#C8CACA" transform="translate(171,295)"/>
<path d="M0,0 Z " fill="#C5C5C2" transform="translate(169,295)"/>
<path d="M0,0 Z " fill="#C1C0C1" transform="translate(166,295)"/>
<path d="M0,0 Z " fill="#848583" transform="translate(116,295)"/>
<path d="M0,0 Z " fill="#D3D3D5" transform="translate(216,293)"/>
<path d="M0,0 Z " fill="#CDCED0" transform="translate(209,293)"/>
<path d="M0,0 Z " fill="#CCCCCF" transform="translate(207,293)"/>
<path d="M0,0 Z " fill="#BCBDBE" transform="translate(269,292)"/>
<path d="M0,0 Z " fill="#CCCFCE" transform="translate(213,292)"/>
<path d="M0,0 Z " fill="#CECFD0" transform="translate(211,292)"/>
<path d="M0,0 Z " fill="#B9BABB" transform="translate(148,292)"/>
<path d="M0,0 Z " fill="#C3C5C5" transform="translate(152,291)"/>
<path d="M0,0 Z " fill="#BFC1C1" transform="translate(150,290)"/>
<path d="M0,0 Z " fill="#4C4B4C" transform="translate(65,289)"/>
<path d="M0,0 Z " fill="#2A2929" transform="translate(19,289)"/>
<path d="M0,0 Z " fill="#545251" transform="translate(69,288)"/>
<path d="M0,0 Z " fill="#BFBFC0" transform="translate(142,287)"/>
<path d="M0,0 Z " fill="#989998" transform="translate(116,287)"/>
<path d="M0,0 Z " fill="#B9B9B9" transform="translate(133,285)"/>
<path d="M0,0 Z " fill="#B0B3B2" transform="translate(127,285)"/>
<path d="M0,0 Z " fill="#BBBCBD" transform="translate(132,284)"/>
<path d="M0,0 Z " fill="#BFC0C2" transform="translate(134,283)"/>
<path d="M0,0 Z " fill="#B4B6B6" transform="translate(127,283)"/>
<path d="M0,0 Z " fill="#2E2E2D" transform="translate(18,283)"/>
<path d="M0,0 Z " fill="#BDBEBE" transform="translate(132,282)"/>
<path d="M0,0 Z " fill="#ACADAB" transform="translate(117,281)"/>
<path d="M0,0 Z " fill="#2E302F" transform="translate(19,281)"/>
<path d="M0,0 Z " fill="#BCBCBB" transform="translate(294,279)"/>
<path d="M0,0 Z " fill="#595A58" transform="translate(65,279)"/>
<path d="M0,0 Z " fill="#C2C1C3" transform="translate(296,277)"/>
<path d="M0,0 Z " fill="#ABAAAD" transform="translate(111,277)"/>
<path d="M0,0 Z " fill="#ADAEAF" transform="translate(111,275)"/>
<path d="M0,0 Z " fill="#333233" transform="translate(17,273)"/>
<path d="M0,0 Z " fill="#BCBDBD" transform="translate(113,271)"/>
<path d="M0,0 Z " fill="#888989" transform="translate(87,271)"/>
<path d="M0,0 Z " fill="#6D6A69" transform="translate(70,271)"/>
<path d="M0,0 Z " fill="#BEBDBB" transform="translate(112,270)"/>
<path d="M0,0 Z " fill="#BCBDBB" transform="translate(106,266)"/>
<path d="M0,0 Z " fill="#B7B9B9" transform="translate(317,265)"/>
<path d="M0,0 Z " fill="#BCBBBA" transform="translate(315,265)"/>
<path d="M0,0 Z " fill="#BCBCBC" transform="translate(103,264)"/>
<path d="M0,0 Z " fill="#B7B5B6" transform="translate(100,263)"/>
<path d="M0,0 Z " fill="#6C6B6C" transform="translate(65,263)"/>
<path d="M0,0 Z " fill="#A9A7A7" transform="translate(93,261)"/>
<path d="M0,0 Z " fill="#B0AFAF" transform="translate(94,259)"/>
<path d="M0,0 Z " fill="#B7B6B4" transform="translate(324,258)"/>
<path d="M0,0 Z " fill="#AAA9AB" transform="translate(92,258)"/>
<path d="M0,0 Z " fill="#AEAEAD" transform="translate(93,257)"/>
<path d="M0,0 Z " fill="#3E3D3D" transform="translate(19,257)"/>
<path d="M0,0 Z " fill="#ADACAC" transform="translate(92,256)"/>
<path d="M0,0 Z " fill="#A0A1A0" transform="translate(87,255)"/>
<path d="M0,0 Z " fill="#9E9D9D" transform="translate(83,253)"/>
<path d="M0,0 Z " fill="#A4A6A5" transform="translate(87,252)"/>
<path d="M0,0 Z " fill="#A2A2A1" transform="translate(84,250)"/>
<path d="M0,0 Z " fill="#EFEFEF" transform="translate(205,249)"/>
<path d="M0,0 Z " fill="#EFEFEE" transform="translate(203,249)"/>
<path d="M0,0 Z " fill="#A0A19F" transform="translate(83,249)"/>
<path d="M0,0 Z " fill="#9A9B9B" transform="translate(81,249)"/>
<path d="M0,0 Z " fill="#414140" transform="translate(19,249)"/>
<path d="M0,0 Z " fill="#EEF1F1" transform="translate(224,248)"/>
<path d="M0,0 Z " fill="#9E9D9E" transform="translate(82,248)"/>
<path d="M0,0 Z " fill="#ECEFEF" transform="translate(216,247)"/>
<path d="M0,0 Z " fill="#EEEDEF" transform="translate(207,247)"/>
<path d="M0,0 Z " fill="#EEF0F0" transform="translate(204,247)"/>
<path d="M0,0 Z " fill="#424242" transform="translate(20,247)"/>
<path d="M0,0 Z " fill="#EEF0F1" transform="translate(233,246)"/>
<path d="M0,0 Z " fill="#EDEFED" transform="translate(208,246)"/>
<path d="M0,0 Z " fill="#EBEDEC" transform="translate(230,245)"/>
<path d="M0,0 Z " fill="#EBECEB" transform="translate(197,245)"/>
<path d="M0,0 Z " fill="#ECECEC" transform="translate(183,245)"/>
<path d="M0,0 Z " fill="#A8A8A9" transform="translate(335,244)"/>
<path d="M0,0 Z " fill="#B5B5B4" transform="translate(333,244)"/>
<path d="M0,0 Z " fill="#ECEDEC" transform="translate(207,244)"/>
<path d="M0,0 Z " fill="#EBECED" transform="translate(196,244)"/>
<path d="M0,0 Z " fill="#EBEDEC" transform="translate(187,244)"/>
<path d="M0,0 Z " fill="#E4E7E9" transform="translate(125,244)"/>
<path d="M0,0 Z " fill="#424343" transform="translate(20,244)"/>
<path d="M0,0 Z " fill="#E7E8EA" transform="translate(286,243)"/>
<path d="M0,0 Z " fill="#E9EBEB" transform="translate(276,243)"/>
<path d="M0,0 Z " fill="#EDEDED" transform="translate(201,243)"/>
<path d="M0,0 Z " fill="#EBECEC" transform="translate(190,243)"/>
<path d="M0,0 Z " fill="#ECECED" transform="translate(183,243)"/>
<path d="M0,0 Z " fill="#ECECED" transform="translate(244,242)"/>
<path d="M0,0 Z " fill="#ECEDEE" transform="translate(237,242)"/>
<path d="M0,0 Z " fill="#EBEEEC" transform="translate(196,242)"/>
<path d="M0,0 Z " fill="#ECECEE" transform="translate(188,242)"/>
<path d="M0,0 Z " fill="#EAEBEC" transform="translate(156,242)"/>
<path d="M0,0 Z " fill="#9A9B9B" transform="translate(341,241)"/>
<path d="M0,0 Z " fill="#E8EAEB" transform="translate(269,241)"/>
<path d="M0,0 Z " fill="#EAEDEC" transform="translate(257,241)"/>
<path d="M0,0 Z " fill="#EDEFEF" transform="translate(249,241)"/>
<path d="M0,0 Z " fill="#EBEDF0" transform="translate(247,241)"/>
<path d="M0,0 Z " fill="#ECECEF" transform="translate(241,241)"/>
<path d="M0,0 Z " fill="#EBEBEC" transform="translate(230,241)"/>
<path d="M0,0 Z " fill="#EAEBED" transform="translate(181,241)"/>
<path d="M0,0 Z " fill="#EBECEE" transform="translate(177,241)"/>
<path d="M0,0 Z " fill="#9F9E9F" transform="translate(81,241)"/>
<path d="M0,0 Z " fill="#9C9D9E" transform="translate(79,241)"/>
<path d="M0,0 Z " fill="#424242" transform="translate(17,241)"/>
<path d="M0,0 Z " fill="#99999B" transform="translate(342,240)"/>
<path d="M0,0 Z " fill="#EBECEB" transform="translate(260,239)"/>
<path d="M0,0 Z " fill="#ECECEC" transform="translate(251,239)"/>
<path d="M0,0 Z " fill="#E9ECEB" transform="translate(177,239)"/>
<path d="M0,0 Z " fill="#ECECEC" transform="translate(169,239)"/>
<path d="M0,0 Z " fill="#EFF0F0" transform="translate(155,239)"/>
<path d="M0,0 Z " fill="#474745" transform="translate(19,236)"/>
<path d="M0,0 Z " fill="#464646" transform="translate(18,235)"/>
<path d="M0,0 Z " fill="#8A8A89" transform="translate(343,233)"/>
<path d="M0,0 Z " fill="#8E9190" transform="translate(76,233)"/>
<path d="M0,0 Z " fill="#7A797B" transform="translate(65,233)"/>
<path d="M0,0 Z " fill="#484646" transform="translate(19,233)"/>
<path d="M0,0 Z " fill="#444544" transform="translate(17,233)"/>
<path d="M0,0 Z " fill="#8E8E8E" transform="translate(342,232)"/>
<path d="M0,0 Z " fill="#949491" transform="translate(78,232)"/>
<path d="M0,0 Z " fill="#919291" transform="translate(340,231)"/>
<path d="M0,0 Z " fill="#474647" transform="translate(19,229)"/>
<path d="M0,0 Z " fill="#474746" transform="translate(18,227)"/>
<path d="M0,0 Z " fill="#AFB1B0" transform="translate(326,226)"/>
<path d="M0,0 Z " fill="#B6B7B7" transform="translate(92,226)"/>
<path d="M0,0 Z " fill="#B4B7B4" transform="translate(324,225)"/>
<path d="M0,0 Z " fill="#BFC0BF" transform="translate(95,225)"/>
<path d="M0,0 Z " fill="#474847" transform="translate(19,225)"/>
<path d="M0,0 Z " fill="#AFB1AE" transform="translate(326,224)"/>
<path d="M0,0 Z " fill="#B9BAB9" transform="translate(94,223)"/>
<path d="M0,0 Z " fill="#A9A9A9" transform="translate(87,223)"/>
<path d="M0,0 Z " fill="#494848" transform="translate(20,223)"/>
<path d="M0,0 Z " fill="#B6B7B6" transform="translate(321,222)"/>
<path d="M0,0 Z " fill="#C2C2C5" transform="translate(100,222)"/>
<path d="M0,0 Z " fill="#B8B9B9" transform="translate(315,220)"/>
<path d="M0,0 Z " fill="#494948" transform="translate(18,219)"/>
<path d="M0,0 Z " fill="#D0CFD0" transform="translate(107,218)"/>
<path d="M0,0 Z " fill="#BDBFBE" transform="translate(311,217)"/>
<path d="M0,0 Z " fill="#CFD0D0" transform="translate(108,217)"/>
<path d="M0,0 Z " fill="#7C7A7B" transform="translate(65,217)"/>
<path d="M0,0 Z " fill="#4A4A49" transform="translate(19,217)"/>
<path d="M0,0 Z " fill="#C7C8C8" transform="translate(308,216)"/>
<path d="M0,0 Z " fill="#BCBCBB" transform="translate(311,215)"/>
<path d="M0,0 Z " fill="#C7C7C7" transform="translate(307,215)"/>
<path d="M0,0 Z " fill="#BFBEBF" transform="translate(310,214)"/>
<path d="M0,0 Z " fill="#C5C8C7" transform="translate(305,214)"/>
<path d="M0,0 Z " fill="#D4D3D3" transform="translate(112,214)"/>
<path d="M0,0 Z " fill="#D2D4D4" transform="translate(114,213)"/>
<path d="M0,0 Z " fill="#DFE0DE" transform="translate(121,209)"/>
<path d="M0,0 Z " fill="#D6D7D2" transform="translate(117,209)"/>
<path d="M0,0 Z " fill="#D2D2D1" transform="translate(115,209)"/>
<path d="M0,0 Z " fill="#61625F" transform="translate(45,209)"/>
<path d="M0,0 Z " fill="#DADDDC" transform="translate(122,208)"/>
<path d="M0,0 Z " fill="#D6D6D4" transform="translate(118,208)"/>
<path d="M0,0 Z " fill="#D1D2CF" transform="translate(116,207)"/>
<path d="M0,0 Z " fill="#D1D2D3" transform="translate(117,205)"/>
<path d="M0,0 Z " fill="#50504D" transform="translate(19,204)"/>
<path d="M0,0 Z " fill="#E4E6E6" transform="translate(160,203)"/>
<path d="M0,0 Z " fill="#E6E7E7" transform="translate(156,202)"/>
<path d="M0,0 Z " fill="#CDCDCE" transform="translate(115,202)"/>
<path d="M0,0 Z " fill="#50504F" transform="translate(19,201)"/>
<path d="M0,0 Z " fill="#E3E3E3" transform="translate(148,200)"/>
<path d="M0,0 Z " fill="#E2E4E3" transform="translate(160,198)"/>
<path d="M0,0 Z " fill="#DEE0DF" transform="translate(136,198)"/>
<path d="M0,0 Z " fill="#E1DFDF" transform="translate(207,197)"/>
<path d="M0,0 Z " fill="#DDDEE0" transform="translate(142,197)"/>
<path d="M0,0 Z " fill="#B9B9B9" transform="translate(101,197)"/>
<path d="M0,0 Z " fill="#E2E1E2" transform="translate(212,196)"/>
<path d="M0,0 Z " fill="#525252" transform="translate(18,195)"/>
<path d="M0,0 Z " fill="#DADAD9" transform="translate(141,194)"/>
<path d="M0,0 Z " fill="#DBDDDD" transform="translate(209,193)"/>
<path d="M0,0 Z " fill="#E2E2E1" transform="translate(201,193)"/>
<path d="M0,0 Z " fill="#DADBDB" transform="translate(137,193)"/>
<path d="M0,0 Z " fill="#BCBABB" transform="translate(101,193)"/>
<path d="M0,0 Z " fill="#6A6967" transform="translate(45,193)"/>
<path d="M0,0 Z " fill="#535253" transform="translate(19,193)"/>
<path d="M0,0 Z " fill="#525151" transform="translate(17,193)"/>
<path d="M0,0 Z " fill="#BFC2C1" transform="translate(278,192)"/>
<path d="M0,0 Z " fill="#D8D9DA" transform="translate(136,192)"/>
<path d="M0,0 Z " fill="#DDDDDB" transform="translate(201,191)"/>
<path d="M0,0 Z " fill="#DBDDDC" transform="translate(199,191)"/>
<path d="M0,0 Z " fill="#DDDFDE" transform="translate(157,191)"/>
<path d="M0,0 Z " fill="#D5D8D9" transform="translate(137,191)"/>
<path d="M0,0 Z " fill="#848383" transform="translate(65,191)"/>
<path d="M0,0 Z " fill="#545453" transform="translate(20,191)"/>
<path d="M0,0 Z " fill="#D6DBD9" transform="translate(136,190)"/>
<path d="M0,0 Z " fill="#D9D9D9" transform="translate(159,189)"/>
<path d="M0,0 Z " fill="#D5D6D7" transform="translate(133,189)"/>
<path d="M0,0 Z " fill="#C4C5C3" transform="translate(267,188)"/>
<path d="M0,0 Z " fill="#565755" transform="translate(19,188)"/>
<path d="M0,0 Z " fill="#D4D6D3" transform="translate(224,187)"/>
<path d="M0,0 Z " fill="#DAD9DA" transform="translate(159,187)"/>
<path d="M0,0 Z " fill="#D5D8D7" transform="translate(127,187)"/>
<path d="M0,0 Z " fill="#D3D4D5" transform="translate(132,186)"/>
<path d="M0,0 Z " fill="#D3D3D2" transform="translate(121,185)"/>
<path d="M0,0 Z " fill="#D2D2D2" transform="translate(119,185)"/>
<path d="M0,0 Z " fill="#CFCFCC" transform="translate(117,185)"/>
<path d="M0,0 Z " fill="#CDCCCD" transform="translate(115,185)"/>
<path d="M0,0 Z " fill="#585857" transform="translate(19,185)"/>
<path d="M0,0 Z " fill="#D0D2D0" transform="translate(230,184)"/>
<path d="M0,0 Z " fill="#D6D7D8" transform="translate(126,184)"/>
<path d="M0,0 Z " fill="#C3C5C4" transform="translate(255,183)"/>
<path d="M0,0 Z " fill="#CFCFCE" transform="translate(223,183)"/>
<path d="M0,0 Z " fill="#D7D9D6" transform="translate(169,183)"/>
<path d="M0,0 Z " fill="#D9DBDC" transform="translate(149,183)"/>
<path d="M0,0 Z " fill="#CCCECE" transform="translate(115,183)"/>
<path d="M0,0 Z " fill="#C1C1C2" transform="translate(256,182)"/>
<path d="M0,0 Z " fill="#D5D5D4" transform="translate(162,182)"/>
<path d="M0,0 Z " fill="#D3D4D3" transform="translate(165,181)"/>
<path d="M0,0 Z " fill="#C8CACB" transform="translate(112,181)"/>
<path d="M0,0 Z " fill="#CFCECD" transform="translate(165,177)"/>
<path d="M0,0 Z " fill="#5D5C5B" transform="translate(19,177)"/>
<path d="M0,0 Z " fill="#CCCDCB" transform="translate(166,176)"/>
<path d="M0,0 Z " fill="#C6C5C4" transform="translate(100,175)"/>
<path d="M0,0 Z " fill="#B1B2B2" transform="translate(87,175)"/>
<path d="M0,0 Z " fill="#979799" transform="translate(67,175)"/>
<path d="M0,0 Z " fill="#939594" transform="translate(65,175)"/>
<path d="M0,0 Z " fill="#5D5D5D" transform="translate(20,175)"/>
<path d="M0,0 Z " fill="#C6C6C8" transform="translate(104,174)"/>
<path d="M0,0 Z " fill="#C9CBCB" transform="translate(170,173)"/>
<path d="M0,0 Z " fill="#CBCBCC" transform="translate(165,173)"/>
<path d="M0,0 Z " fill="#C9C8C7" transform="translate(101,173)"/>
<path d="M0,0 Z " fill="#C8C8C8" transform="translate(173,172)"/>
<path d="M0,0 Z " fill="#D5D5D5" transform="translate(142,170)"/>
<path d="M0,0 Z " fill="#D4D6D5" transform="translate(118,170)"/>
<path d="M0,0 Z " fill="#BDBFBE" transform="translate(181,169)"/>
<path d="M0,0 Z " fill="#C2C3C5" transform="translate(177,169)"/>
<path d="M0,0 Z " fill="#D6D8D4" transform="translate(117,169)"/>
<path d="M0,0 Z " fill="#9B9A9C" transform="translate(65,169)"/>
<path d="M0,0 Z " fill="#616061" transform="translate(19,169)"/>
<path d="M0,0 Z " fill="#C4C3C5" transform="translate(164,167)"/>
<path d="M0,0 Z " fill="#C4C5C4" transform="translate(94,167)"/>
<path d="M0,0 Z " fill="#C5C6C6" transform="translate(162,166)"/>
<path d="M0,0 Z " fill="#D8DBDB" transform="translate(128,166)"/>
<path d="M0,0 Z " fill="#D5D4D5" transform="translate(117,166)"/>
<path d="M0,0 Z " fill="#D4D7D5" transform="translate(114,165)"/>
<path d="M0,0 Z " fill="#636365" transform="translate(19,165)"/>
<path d="M0,0 Z " fill="#C4C3C4" transform="translate(91,164)"/>
<path d="M0,0 Z " fill="#A9ABAB" transform="translate(190,163)"/>
<path d="M0,0 Z " fill="#BCBDBD" transform="translate(166,162)"/>
<path d="M0,0 Z " fill="#C4C3C5" transform="translate(92,162)"/>
<path d="M0,0 Z " fill="#BEBEBE" transform="translate(165,161)"/>
<path d="M0,0 Z " fill="#C4C3C2" transform="translate(161,161)"/>
<path d="M0,0 Z " fill="#C5C4C4" transform="translate(159,161)"/>
<path d="M0,0 Z " fill="#C4C3C4" transform="translate(89,161)"/>
<path d="M0,0 Z " fill="#C1C2C3" transform="translate(87,161)"/>
<path d="M0,0 Z " fill="#878887" transform="translate(45,161)"/>
<path d="M0,0 Z " fill="#676666" transform="translate(19,161)"/>
<path d="M0,0 Z " fill="#D5D3D6" transform="translate(127,160)"/>
<path d="M0,0 Z " fill="#C6C4C6" transform="translate(90,160)"/>
<path d="M0,0 Z " fill="#B0AFAD" transform="translate(69,160)"/>
<path d="M0,0 Z " fill="#A3A3A3" transform="translate(190,159)"/>
<path d="M0,0 Z " fill="#C3C4C4" transform="translate(150,159)"/>
<path d="M0,0 Z " fill="#C2C3C3" transform="translate(87,159)"/>
<path d="M0,0 Z " fill="#AFAFAD" transform="translate(67,159)"/>
<path d="M0,0 Z " fill="#ABABAD" transform="translate(65,159)"/>
<path d="M0,0 Z " fill="#D2D6D5" transform="translate(105,158)"/>
<path d="M0,0 Z " fill="#686869" transform="translate(19,157)"/>
<path d="M0,0 Z " fill="#B5B6B7" transform="translate(69,156)"/>
<path d="M0,0 Z " fill="#B1B2B4" transform="translate(66,156)"/>
<path d="M0,0 Z " fill="#A4A3A3" transform="translate(182,155)"/>
<path d="M0,0 Z " fill="#CACACB" transform="translate(137,153)"/>
<path d="M0,0 Z " fill="#C8C7C9" transform="translate(83,153)"/>
<path d="M0,0 Z " fill="#C6C6C7" transform="translate(81,153)"/>
<path d="M0,0 Z " fill="#C4C6C8" transform="translate(79,153)"/>
<path d="M0,0 Z " fill="#6C6C6B" transform="translate(19,153)"/>
<path d="M0,0 Z " fill="#C8C8C9" transform="translate(136,152)"/>
<path d="M0,0 Z " fill="#B9BABA" transform="translate(69,152)"/>
<path d="M0,0 Z " fill="#D3D4D3" transform="translate(102,151)"/>
<path d="M0,0 Z " fill="#BCBDBD" transform="translate(142,150)"/>
<path d="M0,0 Z " fill="#C3C4C7" transform="translate(136,150)"/>
<path d="M0,0 Z " fill="#CED0D0" transform="translate(109,149)"/>
<path d="M0,0 Z " fill="#C9CBCA" transform="translate(80,149)"/>
<path d="M0,0 Z " fill="#C7CACA" transform="translate(77,149)"/>
<path d="M0,0 Z " fill="#D2D1D2" transform="translate(100,148)"/>
<path d="M0,0 Z " fill="#CFCECF" transform="translate(76,148)"/>
<path d="M0,0 Z " fill="#868786" transform="translate(190,147)"/>
<path d="M0,0 Z " fill="#D0D0D1" transform="translate(111,147)"/>
<path d="M0,0 Z " fill="#6E6F6F" transform="translate(18,147)"/>
<path d="M0,0 Z " fill="#C3C2C3" transform="translate(131,146)"/>
<path d="M0,0 Z " fill="#D0CDD1" transform="translate(115,146)"/>
<path d="M0,0 Z " fill="#CFCFD2" transform="translate(111,145)"/>
<path d="M0,0 Z " fill="#D2D1D1" transform="translate(93,145)"/>
<path d="M0,0 Z " fill="#9D9D9B" transform="translate(45,145)"/>
<path d="M0,0 Z " fill="#9CA09E" transform="translate(166,144)"/>
<path d="M0,0 Z " fill="#A3A5A7" transform="translate(160,144)"/>
<path d="M0,0 Z " fill="#D0CFD1" transform="translate(102,144)"/>
<path d="M0,0 Z " fill="#D1D1D1" transform="translate(92,144)"/>
<path d="M0,0 Z " fill="#B9BBBB" transform="translate(134,143)"/>
<path d="M0,0 Z " fill="#D0D0CF" transform="translate(100,143)"/>
<path d="M0,0 Z " fill="#D1D2D0" transform="translate(93,143)"/>
<path d="M0,0 Z " fill="#CFD1CF" transform="translate(94,142)"/>
<path d="M0,0 Z " fill="#727372" transform="translate(19,140)"/>
<path d="M0,0 Z " fill="#D2D1D0" transform="translate(94,139)"/>
<path d="M0,0 Z " fill="#D0D0CF" transform="translate(90,139)"/>
<path d="M0,0 Z " fill="#CDCECE" transform="translate(107,138)"/>
<path d="M0,0 Z " fill="#D2D3D4" transform="translate(71,137)"/>
<path d="M0,0 Z " fill="#CACCCB" transform="translate(69,137)"/>
<path d="M0,0 Z " fill="#747473" transform="translate(19,137)"/>
<path d="M0,0 Z " fill="#6F7070" transform="translate(17,137)"/>
<path d="M0,0 Z " fill="#D0D0D0" transform="translate(94,135)"/>
<path d="M0,0 Z " fill="#767675" transform="translate(20,135)"/>
<path d="M0,0 Z " fill="#D1D4D3" transform="translate(77,134)"/>
<path d="M0,0 Z " fill="#D2D4D6" transform="translate(72,134)"/>
<path d="M0,0 Z " fill="#878887" transform="translate(165,133)"/>
<path d="M0,0 Z " fill="#CFD1D0" transform="translate(96,133)"/>
<path d="M0,0 Z " fill="#747475" transform="translate(19,133)"/>
<path d="M0,0 Z " fill="#BBBDBE" transform="translate(56,132)"/>
<path d="M0,0 Z " fill="#BEC0BE" transform="translate(117,131)"/>
<path d="M0,0 Z " fill="#D8D6D8" transform="translate(97,131)"/>
<path d="M0,0 Z " fill="#D4D5D5" transform="translate(80,131)"/>
<path d="M0,0 Z " fill="#BEBFBF" transform="translate(117,129)"/>
<path d="M0,0 Z " fill="#C3C3C1" transform="translate(115,129)"/>
<path d="M0,0 Z " fill="#D5D5D3" transform="translate(83,129)"/>
<path d="M0,0 Z " fill="#D1D1D4" transform="translate(77,129)"/>
<path d="M0,0 Z " fill="#C1C3C2" transform="translate(57,129)"/>
<path d="M0,0 Z " fill="#767674" transform="translate(19,129)"/>
<path d="M0,0 Z " fill="#777776" transform="translate(20,127)"/>
<path d="M0,0 Z " fill="#787979" transform="translate(165,125)"/>
<path d="M0,0 Z " fill="#767676" transform="translate(19,124)"/>
<path d="M0,0 Z " fill="#C5C4C5" transform="translate(108,122)"/>
<path d="M0,0 Z " fill="#C7C6C8" transform="translate(56,122)"/>
<path d="M0,0 Z " fill="#C3C3C3" transform="translate(109,121)"/>
<path d="M0,0 Z " fill="#D1D3D3" transform="translate(87,121)"/>
<path d="M0,0 Z " fill="#777675" transform="translate(19,121)"/>
<path d="M0,0 Z " fill="#C1BFC0" transform="translate(110,120)"/>
<path d="M0,0 Z " fill="#777777" transform="translate(20,119)"/>
<path d="M0,0 Z " fill="#CCCECE" transform="translate(73,118)"/>
<path d="M0,0 Z " fill="#6C6D6D" transform="translate(165,117)"/>
<path d="M0,0 Z " fill="#BABCBA" transform="translate(111,117)"/>
<path d="M0,0 Z " fill="#C9CBCB" transform="translate(69,117)"/>
<path d="M0,0 Z " fill="#CED1D2" transform="translate(76,116)"/>
<path d="M0,0 Z " fill="#AEAEAF" transform="translate(44,116)"/>
<path d="M0,0 Z " fill="#767876" transform="translate(19,116)"/>
<path d="M0,0 Z " fill="#D3D2D2" transform="translate(97,115)"/>
<path d="M0,0 Z " fill="#AAACA9" transform="translate(117,113)"/>
<path d="M0,0 Z " fill="#D0D2D1" transform="translate(95,113)"/>
<path d="M0,0 Z " fill="#CECDCE" transform="translate(77,113)"/>
<path d="M0,0 Z " fill="#CED0D0" transform="translate(73,113)"/>
<path d="M0,0 Z " fill="#A7A9AA" transform="translate(41,113)"/>
<path d="M0,0 Z " fill="#767676" transform="translate(19,113)"/>
<path d="M0,0 Z " fill="#A7A9A8" transform="translate(116,111)"/>
<path d="M0,0 Z " fill="#CDD0CF" transform="translate(75,111)"/>
<path d="M0,0 Z " fill="#787877" transform="translate(20,111)"/>
<path d="M0,0 Z " fill="#C9CAC8" transform="translate(68,110)"/>
<path d="M0,0 Z " fill="#C9CACA" transform="translate(66,110)"/>
<path d="M0,0 Z " fill="#A3A6A7" transform="translate(39,110)"/>
<path d="M0,0 Z " fill="#D1D3D2" transform="translate(73,109)"/>
<path d="M0,0 Z " fill="#A1A0A0" transform="translate(37,109)"/>
<path d="M0,0 Z " fill="#5C5B5C" transform="translate(165,105)"/>
<path d="M0,0 Z " fill="#646364" transform="translate(159,105)"/>
<path d="M0,0 Z " fill="#CFCECF" transform="translate(71,105)"/>
<path d="M0,0 Z " fill="#757473" transform="translate(19,105)"/>
<path d="M0,0 Z " fill="#C9C9CB" transform="translate(67,103)"/>
<path d="M0,0 Z " fill="#C7CAC7" transform="translate(68,102)"/>
<path d="M0,0 Z " fill="#9F9E9D" transform="translate(37,101)"/>
<path d="M0,0 Z " fill="#B8B9B9" transform="translate(81,97)"/>
<path d="M0,0 Z " fill="#999D9C" transform="translate(39,97)"/>
<path d="M0,0 Z " fill="#6C6B6B" transform="translate(19,97)"/>
<path d="M0,0 Z " fill="#BEC0C1" transform="translate(58,96)"/>
<path d="M0,0 Z " fill="#8A8A89" transform="translate(116,95)"/>
<path d="M0,0 Z " fill="#ABACAB" transform="translate(93,95)"/>
<path d="M0,0 Z " fill="#999D9D" transform="translate(39,95)"/>
<path d="M0,0 Z " fill="#6C6C6C" transform="translate(20,95)"/>
<path d="M0,0 Z " fill="#4C4E4B" transform="translate(165,93)"/>
<path d="M0,0 Z " fill="#A2A2A3" transform="translate(93,93)"/>
<path d="M0,0 Z " fill="#666666" transform="translate(19,92)"/>
<path d="M0,0 Z " fill="#656566" transform="translate(20,91)"/>
<path d="M0,0 Z " fill="#636363" transform="translate(18,91)"/>
<path d="M0,0 Z " fill="#484546" transform="translate(165,89)"/>
<path d="M0,0 Z " fill="#9A9D9F" transform="translate(47,89)"/>
<path d="M0,0 Z " fill="#5E5E5E" transform="translate(17,89)"/>
<path d="M0,0 Z " fill="#A9A9A9" transform="translate(78,88)"/>
<path d="M0,0 Z " fill="#8F8F90" transform="translate(43,87)"/>
<path d="M0,0 Z " fill="#979A9A" transform="translate(47,86)"/>
<path d="M0,0 Z " fill="#434342" transform="translate(165,85)"/>
<path d="M0,0 Z " fill="#99999A" transform="translate(75,82)"/>
<path d="M0,0 Z " fill="#3E3C3D" transform="translate(165,81)"/>
<path d="M0,0 Z " fill="#555656" transform="translate(17,81)"/>
<path d="M0,0 Z " fill="#8F8E90" transform="translate(78,80)"/>
<path d="M0,0 Z " fill="#949394" transform="translate(74,80)"/>
<path d="M0,0 Z " fill="#909191" transform="translate(75,79)"/>
<path d="M0,0 Z " fill="#8E9090" transform="translate(62,79)"/>
<path d="M0,0 Z " fill="#575857" transform="translate(20,79)"/>
<path d="M0,0 Z " fill="#8F9492" transform="translate(64,78)"/>
<path d="M0,0 Z " fill="#3A3A39" transform="translate(165,77)"/>
<path d="M0,0 Z " fill="#363434" transform="translate(165,73)"/>
<path d="M0,0 Z " fill="#4F4D4D" transform="translate(19,73)"/>
<path d="M0,0 Z " fill="#333334" transform="translate(166,71)"/>
<path d="M0,0 Z " fill="#767778" transform="translate(65,71)"/>
<path d="M0,0 Z " fill="#585B58" transform="translate(45,65)"/>
<path d="M0,0 Z " fill="#595A5A" transform="translate(94,63)"/>
<path d="M0,0 Z " fill="#3B3C3A" transform="translate(19,60)"/>
<path d="M0,0 Z " fill="#242423" transform="translate(166,55)"/>
<path d="M0,0 Z " fill="#454446" transform="translate(43,55)"/>
<path d="M0,0 Z " fill="#414042" transform="translate(69,48)"/>
<path d="M0,0 Z " fill="#414041" transform="translate(65,47)"/>
<path d="M0,0 Z " fill="#1A1819" transform="translate(165,41)"/>
<path d="M0,0 Z " fill="#373637" transform="translate(65,41)"/>
<path d="M0,0 Z " fill="#353535" transform="translate(94,39)"/>
<path d="M0,0 Z " fill="#3B3938" transform="translate(165,30)"/>
<path d="M0,0 Z " fill="#383836" transform="translate(23,24)"/>
<path d="M0,0 Z " fill="#0B0D0D" transform="translate(386,18)"/>
<path d="M0,0 Z " fill="#0C0C0B" transform="translate(407,16)"/>
<path d="M0,0 Z " fill="#1F1C1B" transform="translate(285,16)"/>
<path d="M0,0 Z " fill="#282827" transform="translate(116,14)"/>
<path d="M0,0 Z " fill="#080B09" transform="translate(386,10)"/>
<path d="M0,0 Z " fill="#1A1B1A" transform="translate(268,10)"/>
<path d="M0,0 Z " fill="#040806" transform="translate(386,2)"/>
<path d="M0,0 Z " fill="#201F1F" transform="translate(47,0)"/>
</svg>
